<svg width="30" height="30" viewBox="0 0 30 30" fill="none" xmlns="http://www.w3.org/2000/svg">
<g clip-path="url(#clip0_2454_8634)">
<path d="M30 15C30 6.71573 23.2843 0 15 0C6.71573 0 0 6.71573 0 15C0 23.2843 6.71573 30 15 30C23.2843 30 30 23.2843 30 15Z" fill="#1C1C1C"/>
<path d="M13.0334 16.7472C12.6549 16.7472 12.2775 16.7496 11.899 16.7508C11.7373 16.7508 11.5767 16.7508 11.415 16.7496C11.2791 16.6394 11.1631 16.507 11.0447 16.3793C10.9123 16.2363 10.767 16.1086 10.6299 15.9715C10.5021 15.8437 10.3697 15.7207 10.2549 15.5824C10.1904 15.5051 10.106 15.4488 10.0381 15.3761C9.70173 15.0211 9.34197 14.6906 9.0033 14.339C8.7865 14.1129 8.55916 13.8961 8.3365 13.6758C8.224 13.5644 8.1115 13.4531 8.00603 13.3359C7.98845 13.316 7.92634 13.2773 8.01189 13.2574C8.23572 13.2574 8.46072 13.2574 8.68455 13.2574C8.7115 13.2574 8.73962 13.2644 8.76541 13.2504C9.14275 13.2504 9.52126 13.2527 9.89861 13.2527C10.3873 13.2527 10.876 13.2539 11.3646 13.2551C11.3646 13.2656 11.3588 13.2738 11.3494 13.2785C11.2744 13.3008 11.1982 13.2855 11.122 13.2902C10.8818 13.2937 10.6404 13.2937 10.4002 13.2902C10.1752 13.2926 9.95017 13.2937 9.72517 13.2902C9.46267 13.2844 9.199 13.2879 8.9365 13.2879C8.93181 13.3219 8.95408 13.3347 8.96814 13.3476C9.21775 13.5797 9.45095 13.8293 9.6947 14.0683C9.97244 14.3402 10.249 14.6121 10.5174 14.8933C10.6416 15.0234 10.7728 15.1476 10.8982 15.2777C11.0119 15.3949 11.1513 15.4851 11.2451 15.6234C11.2873 15.6855 11.3576 15.7219 11.4092 15.7769C11.5193 15.8941 11.6388 16.0008 11.7408 16.1261C11.7724 16.1648 11.8217 16.1847 11.8568 16.2211C12.001 16.3676 12.1427 16.5152 12.281 16.6676C12.3174 16.7074 12.3584 16.7156 12.4076 16.7156C12.5857 16.7156 12.7638 16.7144 12.9408 16.7156C12.9736 16.7156 13.0146 16.7015 13.0322 16.7484L13.0334 16.7472ZM18.2881 22.0019C17.9599 22.0019 17.6318 22.0019 17.3037 22.0019C17.1092 21.9914 16.9146 21.9996 16.7201 21.9984C16.6744 21.9984 16.6451 21.9855 16.617 21.9468C16.5525 21.8636 16.4705 21.7945 16.3967 21.7195C16.1951 21.5156 15.9959 21.3105 15.7885 21.1136C15.5142 20.8535 15.2681 20.5676 14.9892 20.3121C14.8029 20.141 14.6377 19.9488 14.4537 19.7754C14.197 19.534 13.9615 19.2703 13.7049 19.0289C13.5713 18.9035 13.4482 18.7676 13.317 18.6386C13.2994 18.6211 13.2806 18.6035 13.2654 18.5847C13.2513 18.5672 13.2361 18.5472 13.2478 18.525C13.2584 18.5039 13.283 18.5121 13.3006 18.5121C13.4564 18.5121 13.6123 18.5121 13.7681 18.5121C13.7845 18.5121 13.8021 18.5144 13.8174 18.5074C13.9392 18.5074 14.0623 18.5051 14.1842 18.5051C15.8049 18.5051 17.4256 18.5051 19.0451 18.5062C19.9146 18.5062 20.7853 18.5062 21.6549 18.5074C21.6877 18.5074 21.7217 18.5051 21.7545 18.5039C21.7627 18.5144 21.7603 18.5226 21.7486 18.5297C21.6935 18.5543 21.6349 18.5437 21.5775 18.5449C21.4427 18.5449 21.308 18.5472 21.1732 18.5437C20.9013 18.5484 20.6306 18.5472 20.3588 18.5437C20.0869 18.5461 19.8138 18.5472 19.542 18.5437C19.3029 18.5472 19.0638 18.5472 18.8248 18.5437C18.5799 18.5472 18.3349 18.5472 18.09 18.5437C17.8064 18.5472 17.5228 18.5472 17.2392 18.5437C16.9556 18.5472 16.672 18.5472 16.3885 18.5437C16.1447 18.5484 15.8998 18.5461 15.656 18.5437C15.4252 18.5449 15.1943 18.5472 14.9646 18.5437C14.7045 18.5367 14.4431 18.5426 14.1771 18.5472C14.2545 18.6164 14.3049 18.7078 14.3799 18.7746C14.6213 18.9914 14.8322 19.2398 15.0677 19.4625C15.1779 19.5668 15.2881 19.6734 15.397 19.7801C15.5154 19.8961 15.6302 20.0168 15.751 20.1316C15.8763 20.2523 15.9912 20.3836 16.1201 20.5019C16.276 20.6449 16.4049 20.8148 16.5607 20.9566C16.781 21.1558 16.9849 21.3715 17.1959 21.5801C17.3013 21.6855 17.4033 21.7969 17.5076 21.9047C17.551 21.9504 17.6002 21.9703 17.6623 21.9691C17.8404 21.9668 18.0174 21.9668 18.1955 21.9691C18.2283 21.9691 18.2693 21.9551 18.2869 22.0019H18.2881Z" fill="#6474D7"/>
<path d="M18.2239 13.2515C18.4688 13.2492 18.7138 13.2468 18.9587 13.2456C19.002 13.2363 19.0466 13.2433 19.0911 13.241C19.1778 13.2925 19.2423 13.3687 19.3102 13.4402C19.6337 13.78 19.9688 14.107 20.3005 14.4363C20.4739 14.6085 20.6403 14.7878 20.8184 14.9531C20.9954 15.1171 21.1583 15.2953 21.3317 15.4628C21.4712 15.5976 21.6059 15.7371 21.7407 15.8777C21.9598 16.1062 22.1895 16.3242 22.4122 16.5492C22.4532 16.5902 22.4919 16.6347 22.5305 16.6781C22.5528 16.7027 22.5798 16.7378 22.513 16.7437C22.2669 16.7437 22.0208 16.7437 21.7735 16.7437C21.736 16.7437 21.6997 16.7437 21.6622 16.7437C21.5802 16.6628 21.4958 16.5855 21.4149 16.5023C21.2684 16.3499 21.129 16.1929 20.9626 16.0605C20.9134 16.0206 20.8759 15.9667 20.8325 15.9199C20.6919 15.771 20.5477 15.6246 20.4001 15.4816C20.0708 15.164 19.7626 14.8253 19.4298 14.5113C19.2001 14.2933 18.988 14.0601 18.7583 13.8421C18.5884 13.6816 18.4372 13.5035 18.2673 13.3441C18.2415 13.3206 18.1981 13.2995 18.2216 13.2492L18.2239 13.2515Z" fill="#30A4AF"/>
<path d="M21.6436 16.7332C21.6822 16.7344 21.7209 16.7367 21.7596 16.7379C21.7643 16.7426 21.7654 16.7461 21.7619 16.7473C21.7596 16.7484 21.7584 16.7496 21.7549 16.7496C21.7221 16.7496 21.6881 16.7461 21.6553 16.7461C19.165 16.7461 16.6748 16.7484 14.1834 16.7484C13.8002 16.7484 13.417 16.7473 13.0326 16.7461C12.9682 16.7191 12.9014 16.7355 12.8357 16.7344C12.6834 16.732 12.5299 16.732 12.3775 16.7344C12.3353 16.7344 12.3025 16.7238 12.2756 16.6922C12.1373 16.534 11.9978 16.3758 11.842 16.2363C11.6768 16.0887 11.5408 15.9094 11.3709 15.7687C11.2408 15.6609 11.1424 15.5238 11.0146 15.4137C10.8775 15.2941 10.7545 15.1523 10.6232 15.0234C10.4486 14.8512 10.2811 14.673 10.1041 14.5019C9.97871 14.3801 9.84863 14.2605 9.73262 14.1281C9.6623 14.0473 9.57324 13.984 9.49941 13.9066C9.31777 13.7133 9.12324 13.5316 8.93574 13.3441C8.91699 13.3254 8.88535 13.3055 8.89707 13.2762C8.90761 13.2504 8.9416 13.2644 8.96504 13.2644C9.20996 13.2644 9.45488 13.2644 9.69863 13.2644C9.95176 13.5059 10.1978 13.7543 10.4428 14.0051C10.6443 14.2113 10.8576 14.407 11.0568 14.6144C11.235 14.8008 11.4225 14.9789 11.6006 15.1664C11.7107 15.2824 11.8244 15.3973 11.9498 15.4992C12.0705 15.5977 12.1654 15.7219 12.2768 15.8297C12.4244 15.9727 12.5615 16.125 12.7103 16.2656C12.8393 16.3875 12.967 16.5105 13.0795 16.6488C13.1111 16.6887 13.1451 16.7133 13.1978 16.7133C13.4146 16.7109 13.6314 16.7168 13.8482 16.7086C14.0838 16.7062 14.3193 16.7051 14.5537 16.7086C14.8361 16.7051 15.1197 16.7051 15.4021 16.7086C15.6799 16.7051 15.9576 16.7051 16.2365 16.7086C16.4873 16.7039 16.7369 16.7051 16.9877 16.7086C17.2326 16.7062 17.4775 16.7051 17.7225 16.7086C17.9896 16.7051 18.2557 16.7051 18.5228 16.7086C18.79 16.7039 19.0561 16.7051 19.3232 16.7086C19.5623 16.7062 19.8014 16.7062 20.0416 16.7086C20.3088 16.7062 20.576 16.7051 20.842 16.7086C21.0799 16.7039 21.3189 16.7062 21.5568 16.7074C21.5873 16.7074 21.6178 16.7098 21.6436 16.732V16.7332Z" fill="#6078D3"/>
<path d="M13.8175 18.5074C13.7003 18.5344 13.5807 18.5133 13.4624 18.5191C13.4096 18.5215 13.3569 18.5191 13.3042 18.5191C13.2889 18.5191 13.2679 18.5133 13.2608 18.5332C13.2538 18.552 13.2714 18.5637 13.2831 18.5742C13.4073 18.6844 13.5139 18.8121 13.6323 18.9281C13.8491 19.1414 14.0671 19.3535 14.2757 19.5762C14.421 19.732 14.5815 19.8738 14.7327 20.0238C14.9718 20.2617 15.2097 20.4996 15.4475 20.7387C15.8272 21.1184 16.2128 21.4922 16.5819 21.8813C16.6686 21.9727 16.7483 21.9902 16.8573 21.9902C17.0061 21.9902 17.1561 21.9727 17.3038 22.0008C16.8807 22.0008 16.4589 22.0008 16.0358 22.0008C15.9737 21.9914 15.9128 21.9996 15.8507 21.9961C15.7159 21.873 15.5882 21.743 15.4604 21.6129C15.2987 21.4488 15.1358 21.2859 14.9718 21.1242C14.8874 21.0398 14.8042 20.9543 14.7233 20.8652C14.5968 20.7258 14.4491 20.6051 14.3202 20.468C14.1913 20.3309 14.0554 20.1996 13.9194 20.0695C13.7507 19.909 13.5995 19.7309 13.4319 19.5691C13.3288 19.4695 13.2151 19.3793 13.1249 19.2656C13.0393 19.1566 12.9198 19.0793 12.8272 18.975C12.71 18.8414 12.5788 18.7219 12.4557 18.5941C12.437 18.5742 12.4077 18.5508 12.4182 18.5238C12.43 18.4922 12.4675 18.5098 12.4932 18.5086C12.6233 18.5039 12.7546 18.5133 12.8846 18.5039C13.1964 18.5039 13.5069 18.5039 13.8186 18.5039L13.8175 18.5074Z" fill="#6970DB"/>
<path d="M19.5246 11.4938H18.6738C18.6164 11.4574 18.5754 11.4035 18.5308 11.3555C18.2719 11.0695 17.9894 10.8059 17.7152 10.5352C17.6098 10.4297 17.5078 10.3184 17.4012 10.2152C17.1996 10.0207 17.0062 9.81798 16.8035 9.62462C16.5398 9.3715 16.2937 9.09962 16.0324 8.84415C15.8484 8.66368 15.6726 8.47501 15.4793 8.30392C15.4066 8.24064 15.3539 8.15743 15.2754 8.09767C15.2449 8.07423 15.2051 8.02853 15.2836 8.00275C15.5297 8.00275 15.7758 8.00275 16.0219 8.00275C16.0933 8.01212 16.1402 8.06134 16.1824 8.11056C16.2832 8.2254 16.4027 8.32032 16.5082 8.43048C16.684 8.61447 16.8738 8.78556 17.0473 8.97306C17.1293 9.06212 17.2101 9.1547 17.3039 9.23204C17.4328 9.33751 17.5348 9.47111 17.6543 9.58595C17.857 9.78165 18.0539 9.98439 18.2543 10.1836C18.4301 10.3594 18.6047 10.5375 18.784 10.7098C18.9293 10.8492 19.0687 10.9957 19.2117 11.1387C19.3078 11.2348 19.4109 11.3227 19.4976 11.427C19.5141 11.4469 19.5469 11.4598 19.5258 11.4949L19.5246 11.4938Z" fill="#24AFA7"/>
<path d="M18.4396 11.4937C17.7904 11.4937 17.1412 11.4961 16.4931 11.4961C16.2904 11.4961 16.0888 11.4937 15.8861 11.4914C15.7771 11.4844 15.6681 11.4902 15.5591 11.4879C15.5345 11.4879 15.5193 11.4726 15.5029 11.4562C15.2849 11.223 15.0505 11.0051 14.8255 10.7789C14.6615 10.6137 14.4974 10.4496 14.3322 10.2855C14.0087 9.96561 13.6947 9.63631 13.3701 9.31756C13.1919 9.14295 13.0208 8.96014 12.8392 8.79022C12.6587 8.62147 12.504 8.42811 12.3142 8.26873C12.2544 8.21951 12.2111 8.15389 12.1501 8.1035C12.1267 8.08358 12.1126 8.05311 12.1267 8.02029C12.1396 7.98983 12.1701 8.00154 12.1935 8.00154C12.4349 8.00272 12.6763 7.99686 12.9189 8.00506C13.063 8.10584 13.165 8.25115 13.2951 8.36951C13.4943 8.54998 13.6701 8.75506 13.8623 8.94139C14.0814 9.1535 14.297 9.37029 14.5126 9.58592C14.6966 9.7699 14.8724 9.96443 15.0634 10.1414C15.4197 10.473 15.7431 10.8351 16.1017 11.1644C16.1826 11.2383 16.2623 11.3179 16.329 11.4082C16.3572 11.4457 16.3888 11.4609 16.4345 11.4609C16.6958 11.4586 16.9572 11.4644 17.2185 11.4562C17.4482 11.4539 17.6779 11.4539 17.9076 11.4562C18.0529 11.4539 18.1982 11.4539 18.3435 11.4562C18.3787 11.4562 18.4232 11.4457 18.4408 11.4949L18.4396 11.4937Z" fill="#34A0B3"/>
<path d="M21.6431 16.7332C21.3759 16.7332 21.1087 16.7332 20.8427 16.7332C20.7103 16.6078 20.5814 16.4765 20.4501 16.35C20.2802 16.1859 20.1279 16.0054 19.9462 15.8531C19.8947 15.8097 19.8595 15.7523 19.8115 15.7054C19.5794 15.4828 19.3556 15.2496 19.1236 15.0257C19.0169 14.9226 18.9173 14.8089 18.8083 14.707C18.6607 14.5687 18.5189 14.4234 18.3771 14.2816C18.199 14.1035 18.0197 13.9253 17.8451 13.7425C17.7173 13.6078 17.5697 13.4917 17.4525 13.3476C17.4302 13.3207 17.3833 13.3019 17.4068 13.2527C17.6798 13.2527 17.9517 13.2527 18.2248 13.2527C18.2271 13.2609 18.2259 13.2714 18.2306 13.2761C18.3982 13.4472 18.5669 13.6195 18.7357 13.7894C18.8154 13.8691 18.8974 13.9476 18.9759 14.0273C19.0568 14.1093 19.133 14.1949 19.2138 14.2757C19.3802 14.441 19.5501 14.6027 19.7166 14.7679C19.8384 14.8875 19.965 15.0023 20.0763 15.13C20.2392 15.3187 20.4326 15.4769 20.6001 15.6609C20.8169 15.8988 21.0583 16.1144 21.2892 16.3394C21.3935 16.4414 21.4861 16.555 21.5986 16.6488C21.6244 16.6699 21.649 16.6933 21.6431 16.7332Z" fill="#34A1B3"/>
<path d="M10.2505 18.5074C10.5282 18.5074 10.806 18.5074 11.0837 18.5074C11.1997 18.5977 11.2958 18.709 11.4013 18.811C11.5935 18.9949 11.7657 19.1989 11.9673 19.3735C12.0493 19.4438 12.1185 19.527 12.1946 19.6043C12.4103 19.8199 12.6271 20.0332 12.8427 20.25C12.9798 20.3871 13.1146 20.5266 13.2505 20.666C13.3841 20.8032 13.5235 20.9332 13.6618 21.0656C13.7638 21.1629 13.8505 21.2754 13.9536 21.3727C14.147 21.5555 14.3321 21.7465 14.5208 21.934C14.5501 21.9633 14.5794 21.9715 14.6169 21.9715C14.7364 21.9715 14.856 21.9739 14.9755 21.9692C15.0271 21.968 15.0786 21.9657 15.129 21.9692C15.1571 21.9715 15.1911 21.9645 15.2028 22.002C14.8642 22.009 14.5243 22.009 14.1856 22.002C14.0743 21.9973 13.963 21.9914 13.8528 22.002C13.745 22.0125 13.6724 21.9668 13.6103 21.8918C13.479 21.7336 13.3138 21.6071 13.1755 21.4571C13.036 21.3059 12.8813 21.1723 12.7454 21.0188C12.6423 20.9028 12.5204 20.8055 12.4138 20.6918C12.3821 20.6578 12.3493 20.6239 12.3165 20.5899C12.0587 20.3297 11.7997 20.0707 11.5349 19.8176C11.3989 19.6875 11.2771 19.5422 11.1353 19.418C10.9618 19.2656 10.8247 19.0793 10.6513 18.927C10.5142 18.8063 10.3888 18.6727 10.2646 18.5379C10.2563 18.5297 10.2517 18.5203 10.254 18.5074H10.2505Z" fill="#7466E3"/>
<path d="M18.2885 22.0019C18.2275 21.975 18.1631 21.9914 18.0998 21.9902C17.9439 21.9878 17.7881 21.9878 17.6334 21.9902C17.5854 21.9902 17.549 21.9785 17.5162 21.9421C17.4178 21.8332 17.3135 21.7289 17.2104 21.6257C17.1025 21.5191 16.9924 21.4125 16.8893 21.3035C16.7041 21.1078 16.4932 20.9402 16.3174 20.7363C16.2248 20.6285 16.1229 20.5277 16.0127 20.4339C15.9283 20.3625 15.8568 20.2722 15.7771 20.1925C15.7174 20.1316 15.6623 20.066 15.5943 20.0144C15.5041 19.9476 15.4514 19.8468 15.3682 19.773C15.1994 19.6218 15.0471 19.4542 14.883 19.2996C14.7201 19.146 14.5854 18.9667 14.4072 18.8273C14.3018 18.7453 14.235 18.621 14.1084 18.5203H14.9381C15.0787 18.6621 15.2264 18.7968 15.36 18.9457C15.4455 19.0406 15.5451 19.1214 15.6318 19.2152C15.8357 19.4343 16.0572 19.6371 16.2682 19.8492C16.5928 20.175 16.9232 20.496 17.2432 20.8265C17.4459 21.0363 17.6592 21.2343 17.8584 21.4476C18.0166 21.6175 18.1947 21.7699 18.3471 21.9457C18.374 21.9761 18.4279 21.955 18.4385 22.0042C18.3881 22.0042 18.3377 22.0042 18.2885 22.0042V22.0019Z" fill="#6078D4"/>
<path d="M17.4057 13.2516C17.4725 13.3582 17.5615 13.4449 17.6518 13.5281C17.8006 13.6664 17.9436 13.8082 18.0807 13.9571C18.1205 14.0004 18.1697 14.0309 18.2072 14.0742C18.3607 14.2512 18.533 14.4117 18.6994 14.5758C18.8213 14.6953 18.9514 14.8114 19.0697 14.9332C19.2186 15.0856 19.3732 15.2309 19.5186 15.3867C19.6568 15.5356 19.7986 15.6809 19.9439 15.8203C20.1033 15.9739 20.2533 16.1367 20.4162 16.2867C20.5463 16.4063 20.667 16.5352 20.7924 16.6606C20.8135 16.6817 20.8416 16.6981 20.8428 16.7332C20.5756 16.7332 20.3084 16.7332 20.0412 16.7332C19.9111 16.6055 19.7658 16.493 19.6498 16.3512C19.6346 16.3313 19.617 16.3137 19.5994 16.2961C19.4213 16.1215 19.2385 15.9516 19.0662 15.7723C18.901 15.6012 18.7346 15.4289 18.5635 15.2637C18.1592 14.8723 17.7771 14.4586 17.3705 14.0684C17.1607 13.8668 16.9639 13.6524 16.7482 13.4567C16.6885 13.4016 16.6146 13.3465 16.6064 13.2516C16.8736 13.2516 17.1396 13.2516 17.4068 13.2516H17.4057Z" fill="#389DB6"/>
<path d="M16.3888 18.5203C16.6724 18.5203 16.956 18.5203 17.2396 18.5203C17.3615 18.641 17.4892 18.7559 17.6087 18.8801C17.8806 19.1649 18.1595 19.4449 18.4454 19.7168C18.6025 19.8656 18.7537 20.0203 18.9048 20.1739C19.1978 20.4703 19.4919 20.7645 19.7861 21.0598C19.9642 21.2379 20.1341 21.4254 20.3263 21.5883C20.1997 21.7219 20.1001 21.8848 19.9232 21.9621C19.8869 21.9785 19.8517 22.002 19.8083 21.9996C19.7439 21.8871 19.6396 21.8086 19.5482 21.7231C19.4579 21.6375 19.3712 21.5473 19.2822 21.4606C19.049 21.2356 18.8216 21.0047 18.5943 20.775C18.4056 20.584 18.2146 20.3942 18.0294 20.2008C17.8162 19.9793 17.5994 19.7614 17.3744 19.5504C17.2232 19.4086 17.0744 19.2645 16.9349 19.1086C16.8189 18.9785 16.6841 18.866 16.5611 18.743C16.5072 18.6879 16.4638 18.6223 16.3994 18.5766C16.3818 18.5649 16.3689 18.5426 16.3876 18.5192L16.3888 18.5203Z" fill="#5583CB"/>
<path d="M9.9644 8.10821C10.0394 8.01798 10.1472 8.00157 10.2515 7.99571C10.3886 7.98751 10.5281 7.99571 10.6652 7.99571C10.8339 8.16446 11.0097 8.32501 11.1691 8.50313C11.2207 8.56173 11.2828 8.6086 11.3378 8.66368C11.6835 9.01173 12.0351 9.35391 12.3796 9.70313C12.7078 10.0348 13.0417 10.3594 13.3652 10.6957C13.5152 10.8504 13.6664 11.0063 13.8257 11.1516C13.9148 11.2324 14.0074 11.3156 14.08 11.4141C14.0964 11.4363 14.1445 11.4727 14.0707 11.4879C13.8246 11.4879 13.5796 11.4879 13.3347 11.4879C13.3066 11.4914 13.289 11.475 13.2714 11.4563C13.0464 11.2231 12.8039 11.0051 12.5824 10.7695C12.4382 10.616 12.2824 10.4719 12.1347 10.3242C11.8734 10.0641 11.6273 9.78868 11.3507 9.54376C11.2242 9.43243 11.1257 9.29063 10.9957 9.18165C10.8386 9.04923 10.7144 8.88282 10.5585 8.74805C10.4613 8.66368 10.3851 8.55235 10.2855 8.46915C10.18 8.38126 10.1003 8.26993 9.99956 8.17852C9.98081 8.16095 9.95386 8.14337 9.96675 8.10938L9.9644 8.10821Z" fill="#4096BB"/>
<path d="M7.98059 13.2621C8.02278 13.3406 8.09309 13.3957 8.15285 13.459C8.31809 13.6336 8.49153 13.8 8.66145 13.9699C8.84543 14.1539 9.02825 14.3367 9.21223 14.5207C9.40442 14.7129 9.6095 14.8957 9.79465 15.0938C10.056 15.3727 10.3454 15.6234 10.595 15.9141C10.6513 15.9797 10.7263 16.0324 10.7884 16.0945C10.8763 16.1813 10.9712 16.2598 11.0509 16.3559C11.1388 16.4613 11.2431 16.5539 11.3404 16.65C11.3697 16.6793 11.3989 16.7086 11.4154 16.7484C11.1482 16.7484 10.881 16.7484 10.615 16.7484C10.5704 16.7273 10.5435 16.6863 10.5142 16.65C10.4345 16.5527 10.3384 16.4731 10.2505 16.384C10.0982 16.2305 9.93762 16.0852 9.79114 15.927C9.68918 15.8168 9.57434 15.7207 9.47356 15.6082C9.33645 15.4559 9.18528 15.3164 9.04114 15.1711C8.88528 15.0141 8.72239 14.8629 8.56887 14.7035C8.33215 14.4586 8.08723 14.2219 7.84817 13.9793C7.67004 13.7977 7.49543 13.6125 7.30442 13.4426C7.28567 13.4262 7.25285 13.4145 7.26106 13.3793C7.3009 13.3266 7.34192 13.2738 7.41223 13.2621C7.6009 13.2516 7.78957 13.2527 7.97825 13.2621H7.98059Z" fill="#6970DB"/>
<path d="M19.5246 11.4937C19.4508 11.407 19.3828 11.3133 19.2949 11.2406C19.2012 11.1633 19.1121 11.0824 19.0371 10.9851C19.002 10.9394 18.9445 10.9113 18.9094 10.8679C18.8051 10.739 18.675 10.6347 18.5602 10.5175C18.4605 10.4156 18.3598 10.3136 18.2578 10.2129C18.1441 10.1027 18.0363 9.98552 17.9215 9.87536C17.816 9.77458 17.7211 9.66442 17.6109 9.56833C17.5266 9.4945 17.4562 9.40427 17.3766 9.32458C17.2828 9.23083 17.1809 9.14645 17.0918 9.04919C16.9934 8.9402 16.8949 8.83005 16.7848 8.73395C16.6676 8.63317 16.568 8.51481 16.4566 8.40934C16.3582 8.31559 16.2422 8.23474 16.166 8.11638C16.1367 8.07067 16.0687 8.0695 16.0547 8.00974C16.1062 7.98981 16.159 8.00153 16.2105 8.00153C16.4238 8.00036 16.6383 8.00153 16.8516 8.00153C16.882 7.99802 16.9031 8.01208 16.923 8.03434C17.1352 8.26872 17.3613 8.4902 17.5875 8.71169C17.7703 8.88981 17.9543 9.06794 18.1336 9.24841C18.307 9.42302 18.4816 9.59645 18.6562 9.77106C18.9363 10.0523 19.2105 10.3383 19.4895 10.6195C19.616 10.7472 19.7496 10.8679 19.875 10.9968C19.9652 11.0906 20.0695 11.1703 20.1422 11.2804C20.025 11.4293 19.8738 11.5054 19.6828 11.4972C19.6301 11.4949 19.5773 11.4949 19.5246 11.4937Z" fill="#20B3A3"/>
<path d="M16.8903 8.01209C16.6126 8.01209 16.3337 8.01209 16.0559 8.01209C15.7888 8.01209 15.5216 8.01209 15.2556 8.01209C15.2286 8.03552 15.1946 8.03787 15.1618 8.03787C14.9427 8.03787 14.7247 8.04138 14.5056 8.03552C14.2606 8.03904 14.0157 8.03904 13.7708 8.03552C13.5188 8.04021 13.2657 8.03669 13.0138 8.03787C12.9798 8.03787 12.947 8.03552 12.92 8.01209C12.6833 8.01209 12.4477 8.01209 12.211 8.01209C12.1864 8.01209 12.1489 7.99685 12.1407 8.03552C12.1349 8.06365 12.1559 8.08591 12.177 8.10701C12.3141 8.23943 12.4513 8.37185 12.5837 8.50779C12.6634 8.58982 12.7266 8.68943 12.8333 8.74802C12.8837 8.77615 12.9141 8.83474 12.9575 8.8781C13.2634 9.1781 13.5681 9.48162 13.8681 9.78748C14.0216 9.94451 14.1833 10.0945 14.3333 10.2551C14.4235 10.3523 14.5349 10.4273 14.6099 10.5398C14.6321 10.5726 14.6743 10.5914 14.7036 10.6207C14.8677 10.7836 15.0317 10.9476 15.1958 11.1117C15.2895 11.2054 15.3833 11.3004 15.477 11.3929C15.5028 11.4187 15.5251 11.4469 15.5391 11.4808C15.4489 11.5008 15.3575 11.4879 15.2661 11.489C15.1184 11.4914 14.972 11.489 14.8243 11.489C14.7938 11.4926 14.7727 11.4773 14.7528 11.4562C14.4739 11.1633 14.1809 10.8832 13.895 10.5961C13.5891 10.289 13.2868 9.97966 12.9798 9.6738C12.6809 9.37615 12.3833 9.07849 12.0833 8.78083C11.9345 8.63201 11.7786 8.49021 11.6427 8.32732C11.5677 8.23826 11.4669 8.17498 11.3895 8.08591C11.3684 8.0613 11.3274 8.04138 11.3497 7.99685C11.4528 7.99685 11.5548 7.99568 11.6579 7.99568C13.3032 7.99568 14.9485 7.99568 16.595 7.99568C18.2825 7.99568 19.97 7.99802 21.6563 7.99802C21.6891 7.99802 21.7231 7.99568 21.7559 7.99451C21.763 8.00505 21.7606 8.01326 21.7501 8.02029C21.647 8.05076 21.5415 8.02966 21.4372 8.03435C21.2052 8.03787 20.9731 8.03787 20.7423 8.03435C20.4927 8.03787 20.2419 8.03787 19.9923 8.03435C19.7145 8.03787 19.4368 8.03787 19.1591 8.03435C18.8919 8.03904 18.6259 8.03787 18.3587 8.03435C18.1196 8.03669 17.8806 8.03787 17.6403 8.03435C17.4224 8.03904 17.2032 8.03552 16.9852 8.03669C16.9513 8.03669 16.9196 8.02849 16.8903 8.01209Z" fill="#389DB6"/>
<path d="M14.5029 8.01093C14.7537 8.01093 15.0033 8.01093 15.2541 8.01093C15.2482 8.0496 15.274 8.07186 15.2974 8.0953C15.4709 8.26288 15.6478 8.42928 15.8177 8.60038C15.9408 8.72343 16.0673 8.84296 16.1904 8.966C16.331 9.10546 16.4564 9.26132 16.6017 9.39608C16.7412 9.52499 16.8759 9.65975 17.006 9.79686C17.1724 9.97147 17.3505 10.132 17.517 10.3055C17.6423 10.4367 17.7736 10.5633 17.9037 10.6898C18.1545 10.9324 18.4041 11.1785 18.6373 11.4375C18.6513 11.4539 18.6607 11.475 18.6724 11.4937C18.5939 11.4937 18.5166 11.4937 18.438 11.4937C18.3584 11.4656 18.2752 11.4844 18.1943 11.4808C18.0982 11.4773 18.0021 11.4808 17.906 11.4808C17.8416 11.4445 17.8123 11.3742 17.7584 11.3262C17.5709 11.1539 17.3939 10.9687 17.2134 10.7894C17.0998 10.6758 16.9966 10.5504 16.8771 10.4426C16.7002 10.282 16.5396 10.1062 16.3673 9.941C16.1963 9.77577 16.0193 9.61522 15.867 9.43124C15.8025 9.35389 15.7146 9.30116 15.6478 9.22733C15.3877 8.94257 15.097 8.68827 14.8345 8.40468C14.7396 8.30155 14.6435 8.19491 14.5345 8.10468C14.5076 8.08241 14.4795 8.05546 14.5029 8.01327V8.01093Z" fill="#28ABAA"/>
<path d="M17.7233 16.7333C17.4783 16.7333 17.2334 16.7333 16.9885 16.7333C16.9123 16.6805 16.8666 16.5985 16.7986 16.5375C16.6838 16.4333 16.5678 16.329 16.4693 16.2094C16.385 16.1063 16.283 16.0196 16.1869 15.9282C16.0498 15.7981 15.9174 15.6645 15.7873 15.5274C15.6947 15.429 15.5986 15.3329 15.4979 15.2426C15.3924 15.1489 15.2975 15.0434 15.1967 14.9438C14.9166 14.6661 14.633 14.3918 14.3611 14.1071C14.183 13.9208 13.9943 13.7461 13.8174 13.5586C13.7506 13.4883 13.6721 13.4297 13.6111 13.3547C13.59 13.329 13.5408 13.2926 13.6053 13.2563C13.6932 13.254 13.7811 13.261 13.869 13.2528C13.9662 13.2516 14.0623 13.2493 14.1596 13.2493C14.8744 13.2493 15.5904 13.2493 16.3053 13.2493C16.3381 13.2493 16.3721 13.2516 16.4049 13.2516C16.3861 13.3008 16.3416 13.2891 16.3053 13.2891C16.1717 13.2915 16.0393 13.2926 15.9057 13.2891C15.649 13.2926 15.3924 13.2926 15.1358 13.2891C14.8756 13.2809 14.6166 13.2868 14.3553 13.2844C14.3553 13.3278 14.3799 13.3442 14.3986 13.3618C14.5908 13.5422 14.776 13.7297 14.9611 13.9172C15.2893 14.2489 15.6209 14.577 15.9514 14.9051C16.1014 15.054 16.2596 15.1946 16.4002 15.3504C16.542 15.5075 16.6943 15.6528 16.8455 15.7993C17.0928 16.0383 17.3213 16.2961 17.5768 16.527C17.6225 16.568 17.6647 16.6125 17.7022 16.6606C17.7186 16.6817 17.7443 16.7004 17.7221 16.7333H17.7233Z" fill="#488EC1"/>
<path d="M9.96428 8.10818C10.1002 8.26873 10.2619 8.40466 10.4037 8.55935C10.5467 8.71638 10.7143 8.84998 10.8502 9.01521C10.9158 9.09607 11.0084 9.15349 11.0776 9.23201C11.2838 9.46404 11.5194 9.6656 11.7326 9.88943C11.8299 9.99138 11.9201 10.1051 12.0362 10.1929C12.1229 10.2586 12.1838 10.3582 12.2658 10.432C12.4358 10.582 12.594 10.7449 12.751 10.9066C12.9151 11.0754 13.0908 11.2324 13.2514 11.4035C13.2713 11.4258 13.3006 11.4422 13.3018 11.4773C13.2737 11.4961 13.242 11.4867 13.2127 11.4867C12.9819 11.4867 12.751 11.4867 12.5213 11.4867C12.4908 11.4902 12.4709 11.475 12.4487 11.4539C12.2237 11.2324 12.008 11.0015 11.7819 10.7801C11.5076 10.5117 11.2393 10.2386 10.9686 9.96677C10.6358 9.63162 10.3041 9.29646 9.96663 8.96599C9.84592 8.84763 9.72991 8.72341 9.60921 8.60505C9.58694 8.58279 9.55296 8.56404 9.5635 8.52302C9.67249 8.39998 9.78147 8.2781 9.89163 8.15623C9.91155 8.13513 9.92796 8.10583 9.96428 8.10583V8.10818Z" fill="#4492BF"/>
<path d="M16.3885 18.5203C16.4237 18.5977 16.4952 18.6446 16.5502 18.702C16.7389 18.8977 16.9358 19.0864 17.1268 19.2797C17.3401 19.4965 17.5733 19.6934 17.7807 19.9137C17.8885 20.0274 17.9998 20.1387 18.1065 20.2535C18.2307 20.3883 18.3584 20.5231 18.4991 20.6438C18.5694 20.7047 18.628 20.7785 18.6971 20.8418C18.8307 20.966 18.9455 21.109 19.0803 21.2309C19.2479 21.3832 19.392 21.5578 19.5643 21.7043C19.6416 21.7699 19.6955 21.859 19.7834 21.9153C19.8104 21.9328 19.8104 21.968 19.808 21.9996C19.569 22.0102 19.3299 22.0055 19.0909 22.002C18.9174 21.8344 18.7463 21.6645 18.5787 21.491C18.458 21.3656 18.335 21.2414 18.2108 21.1196C18.0233 20.9356 17.8311 20.7563 17.6541 20.5594C17.5522 20.4457 17.4444 20.3379 17.3272 20.2395C17.203 20.1364 17.108 20.0039 16.9909 19.8938C16.8221 19.7332 16.6639 19.5633 16.4916 19.4074C16.3452 19.275 16.2233 19.1192 16.078 18.9856C15.9444 18.8649 15.8237 18.7324 15.7006 18.6012C15.6795 18.5778 15.6455 18.5602 15.6549 18.5192C15.8998 18.5192 16.1436 18.5192 16.3885 18.5192V18.5203Z" fill="#587FCE"/>
<path d="M15.655 18.5203C15.7581 18.6187 15.846 18.7324 15.9515 18.8308C16.1331 18.9996 16.2972 19.1859 16.4718 19.3617C16.6593 19.548 16.8585 19.7226 17.0378 19.9171C17.1925 20.0847 17.3624 20.2347 17.5218 20.3964C17.6905 20.5687 17.8546 20.7445 18.0245 20.9144C18.2015 21.0914 18.3901 21.2566 18.5601 21.4394C18.7253 21.6175 18.9046 21.7839 19.0698 21.9621C19.0804 21.9738 19.0851 21.9902 19.0921 22.0054C18.8753 22.0054 18.6573 22.0054 18.4405 22.0054C18.3843 21.9937 18.3433 21.9703 18.3034 21.921C18.2085 21.8074 18.0972 21.7066 17.9929 21.6011C17.8147 21.423 17.6366 21.2449 17.4585 21.0667C17.2581 20.8664 17.0601 20.666 16.8585 20.4679C16.6886 20.3003 16.5257 20.1234 16.3558 19.957C16.1647 19.7707 15.9679 19.589 15.7792 19.3992C15.6573 19.2761 15.5366 19.1507 15.4147 19.0253C15.2683 18.8753 15.1183 18.7277 14.9706 18.5789C14.9554 18.5625 14.939 18.5472 14.939 18.5226C15.178 18.5226 15.4171 18.5226 15.6562 18.5226L15.655 18.5203Z" fill="#5C7CD1"/>
<path d="M15.9045 13.2656C16.0451 13.2656 16.1846 13.2656 16.3252 13.2656C16.3521 13.2656 16.3803 13.2738 16.4037 13.2527C16.4705 13.2527 16.5385 13.2527 16.6053 13.2527C16.665 13.3383 16.7248 13.4238 16.8115 13.4883C16.8619 13.5258 16.9041 13.575 16.9498 13.6195C17.2838 13.9523 17.6213 14.2816 17.9482 14.6215C18.1076 14.7879 18.2682 14.9531 18.4346 15.1125C18.6045 15.2754 18.7697 15.4406 18.9326 15.6094C19.0744 15.7558 19.2174 15.9035 19.365 16.0418C19.5654 16.2281 19.733 16.4484 19.9475 16.6195C19.9861 16.65 20.0225 16.6863 20.04 16.7355C19.801 16.7355 19.5619 16.7355 19.3229 16.7355C19.1881 16.5961 19.0439 16.466 18.9104 16.3254C18.7768 16.1848 18.6326 16.0535 18.5002 15.9129C18.3631 15.7676 18.2189 15.6305 18.0783 15.4887C17.9635 15.3726 17.851 15.2531 17.7326 15.1418C17.5381 14.9601 17.3506 14.7715 17.1713 14.5758C17.0869 14.4844 16.9932 14.4012 16.9053 14.3133C16.6697 14.0789 16.4295 13.848 16.1939 13.6125C16.1096 13.5281 16.0369 13.4332 15.942 13.3594C15.9162 13.3394 15.8799 13.316 15.9045 13.2703V13.2656ZM11.3494 7.99569C11.3834 8.07889 11.4584 8.12811 11.5205 8.18436C11.592 8.24999 11.6564 8.32147 11.7244 8.38944C12.0607 8.72694 12.3994 9.06444 12.7357 9.40194C12.8986 9.56483 13.0686 9.72186 13.2256 9.89179C13.4201 10.1016 13.6287 10.2973 13.8303 10.5C13.9967 10.6664 14.1678 10.8269 14.333 10.9922C14.4736 11.1328 14.6131 11.2769 14.7502 11.4211C14.7654 11.4363 14.7736 11.4586 14.7842 11.4773C14.633 11.4973 14.4818 11.4832 14.3307 11.4855C14.2545 11.4855 14.1771 11.4973 14.101 11.4773C14.0717 11.441 14.0471 11.4 14.0143 11.3672C13.8268 11.1773 13.6369 10.9898 13.4482 10.8C13.2314 10.582 13.0217 10.357 12.7979 10.1473C12.5482 9.91405 12.3232 9.65507 12.0666 9.42889C11.9635 9.33866 11.8803 9.22382 11.7783 9.13241C11.599 8.97186 11.4502 8.78319 11.2709 8.62382C11.1092 8.48085 10.9768 8.30975 10.8104 8.1703C10.7553 8.1246 10.6932 8.06835 10.665 7.99335C10.8936 7.99335 11.1209 7.99335 11.3494 7.99335V7.99569Z" fill="#3C99B9"/>
<path d="M20.326 21.5895C20.2697 21.5801 20.2346 21.5344 20.1994 21.5004C20.0963 21.4008 19.985 21.3082 19.8982 21.1922C19.8689 21.1535 19.8232 21.1277 19.7881 21.0926C19.5209 20.8266 19.249 20.5629 18.9877 20.2898C18.8424 20.1387 18.6947 19.9887 18.5459 19.8434C18.2271 19.534 17.9154 19.2176 17.6025 18.9035C17.4994 18.7992 17.3939 18.6984 17.2896 18.5953C17.2686 18.5742 17.2404 18.5578 17.2393 18.5215C17.5229 18.5215 17.8064 18.5215 18.09 18.5215C18.2119 18.6621 18.3479 18.7887 18.4826 18.9176C18.5857 19.0172 18.6795 19.1297 18.7873 19.2246C18.8893 19.3148 18.9842 19.4133 19.0756 19.5117C19.1869 19.6312 19.3146 19.7344 19.4201 19.8586C19.4811 19.9313 19.5537 19.9922 19.6205 20.059C19.8396 20.2793 20.0553 20.5031 20.2756 20.7223C20.3998 20.8453 20.5275 20.9648 20.6494 21.0902C20.6729 21.1137 20.701 21.1348 20.7057 21.1699C20.5791 21.3094 20.4537 21.4488 20.3271 21.5883L20.326 21.5895Z" fill="#5087C7"/>
<path d="M22.5445 16.7355C22.5199 16.6758 22.4684 16.6359 22.425 16.5926C22.2328 16.4004 22.0336 16.2152 21.8473 16.0184C21.6773 15.8402 21.4945 15.675 21.3328 15.4887C21.2602 15.4055 21.1699 15.3316 21.0891 15.2531C20.8816 15.0504 20.6754 14.8465 20.4738 14.6379C20.2547 14.4117 20.0309 14.1879 19.8035 13.9699C19.616 13.7883 19.4461 13.5902 19.2539 13.4133C19.2023 13.3652 19.1273 13.3301 19.1074 13.2504C19.1719 13.2281 19.2375 13.241 19.3031 13.241C19.4484 13.241 19.5949 13.234 19.7402 13.2445C19.8855 13.2598 20.0109 13.3137 20.1105 13.425C20.4293 13.7789 20.7492 14.1316 21.0691 14.4832C21.2566 14.6906 21.4477 14.8945 21.6352 15.102C21.9422 15.4395 22.2469 15.7793 22.5527 16.118C22.6031 16.173 22.6594 16.2234 22.7062 16.282C22.8527 16.4684 22.7988 16.6535 22.5773 16.7379C22.5656 16.7426 22.5551 16.7438 22.5445 16.7344V16.7355Z" fill="#2BA9AC"/>
<path d="M16.8901 8.01208C17.1397 8.01208 17.3905 8.01208 17.6401 8.01208C17.8147 8.18552 17.9905 8.35779 18.1581 8.53826C18.2753 8.66365 18.4089 8.77263 18.5272 8.89802C18.6128 8.98826 18.6913 9.08552 18.7851 9.16873C18.9937 9.35505 19.1812 9.56365 19.3804 9.76052C19.6124 9.99021 19.8491 10.2152 20.0765 10.4496C20.1866 10.5633 20.3097 10.6629 20.4151 10.7812C20.4468 10.8164 20.4843 10.8457 20.4937 10.8961C20.3765 11.0238 20.2604 11.1515 20.1433 11.2793C20.0659 11.2324 20.0097 11.1597 19.9464 11.0976C19.8761 11.0285 19.7987 10.9617 19.7366 10.8867C19.6511 10.7836 19.5386 10.7121 19.453 10.6125C19.3323 10.473 19.1987 10.3453 19.0698 10.214C18.8976 10.0383 18.7136 9.87419 18.5472 9.6949C18.4147 9.55193 18.2718 9.41833 18.137 9.27888C17.9612 9.09724 17.7866 8.90974 17.5909 8.74685C17.5089 8.67888 17.4444 8.59099 17.3694 8.51482C17.2335 8.37654 17.0964 8.2406 16.9593 8.10466C16.9312 8.07654 16.9054 8.04841 16.8901 8.01208Z" fill="#1CB7A0"/>
<path d="M13.3311 21.9984C13.1846 21.9996 13.0381 22.0031 12.8916 22.0031C12.5201 22.0031 12.1498 22.0031 11.7784 22.0031C11.7479 22.0031 11.7174 21.9996 11.6881 21.9984C11.7116 21.9585 11.7514 21.9726 11.7842 21.9714C11.9061 21.9691 12.0268 21.9726 12.1674 21.9679C12.0889 21.8812 12.0198 21.8109 11.9506 21.7406C11.7479 21.5355 11.544 21.3304 11.3389 21.1289C11.0916 20.8863 10.8643 20.6238 10.5983 20.4011C10.5092 20.3261 10.4424 20.2289 10.3604 20.1468C10.1659 19.95 9.96546 19.7578 9.76976 19.5621C9.66898 19.4601 9.55882 19.3675 9.46507 19.2585C9.44749 19.2386 9.42054 19.2222 9.43109 19.1882C9.5471 19.05 9.66312 18.9105 9.79906 18.7898C9.97835 18.9234 10.1073 19.1085 10.2713 19.2574C10.5022 19.4683 10.7143 19.6992 10.9358 19.9195C11.1186 20.1011 11.2967 20.2875 11.4819 20.4679C11.6284 20.6109 11.7784 20.7503 11.9201 20.8968C12.1182 21.1019 12.3256 21.3 12.5237 21.5062C12.6678 21.6562 12.8201 21.798 12.9666 21.9457C12.9889 21.9679 13.0135 21.9714 13.0416 21.9714C13.1225 21.9714 13.2022 21.9714 13.283 21.9714C13.303 21.975 13.3252 21.9726 13.3323 21.9996L13.3311 21.9984Z" fill="#7B5FE8"/>
<path d="M9.43118 19.1859C9.50501 19.2539 9.55188 19.3476 9.64563 19.3992C9.6843 19.4203 9.70657 19.4707 9.73938 19.5035C9.90696 19.6664 10.0781 19.8258 10.2421 19.9922C10.3581 20.1094 10.4777 20.2242 10.5784 20.3566C10.6113 20.4 10.6605 20.4304 10.7015 20.4668C10.8738 20.6168 11.0238 20.7914 11.1878 20.9496C11.3624 21.1183 11.5323 21.2941 11.7058 21.464C11.8616 21.6164 12.0187 21.7687 12.1652 21.9316C12.1769 21.9445 12.2015 21.9562 12.1898 21.9785C12.1792 21.9996 12.1546 21.9902 12.137 21.9902C11.987 21.9949 11.837 21.9808 11.6882 21.9984C11.4316 22.0008 11.1749 22.0019 10.9183 22.0043C10.8738 22.0043 10.8304 22.0054 10.7859 22.0066C10.78 22.0031 10.7777 21.9984 10.7788 21.9937C10.7788 21.989 10.7812 21.9867 10.7823 21.9867C10.8257 21.9609 10.8738 21.9715 10.9206 21.9715C11.0448 21.9691 11.1702 21.9715 11.3003 21.9703C11.2968 21.9316 11.2734 21.9105 11.2523 21.8918C10.9663 21.6375 10.705 21.3574 10.4366 21.0855C10.139 20.7843 9.83313 20.4902 9.54133 20.1832C9.38547 20.0191 9.22493 19.8586 9.05852 19.7039C9.03977 19.6863 9.00813 19.6746 9.01516 19.6394C9.15344 19.4883 9.28118 19.3277 9.43118 19.1871V19.1859Z" fill="#815AEC"/>
<path d="M12.8837 18.5074C12.7806 18.5356 12.6739 18.5133 12.5696 18.5192C12.5239 18.5215 12.4782 18.5192 12.4208 18.5192C12.4934 18.6282 12.5848 18.7008 12.6657 18.7805C12.7442 18.8578 12.8134 18.9434 12.8931 19.0196C12.9329 19.0582 12.9798 19.0899 13.0173 19.1297C13.2083 19.3371 13.4216 19.5223 13.6149 19.7274C13.7485 19.8703 13.888 20.0063 14.0286 20.141C14.1962 20.3028 14.345 20.4867 14.5208 20.6391C14.7059 20.7996 14.8524 20.9953 15.0376 21.1559C15.1524 21.2567 15.252 21.3785 15.3645 21.4852C15.504 21.6188 15.627 21.7699 15.7782 21.893C15.8087 21.9176 15.8309 21.9492 15.8391 21.9891C15.6821 22.009 15.5239 21.9856 15.3669 22.0008C15.2567 22.0114 15.1841 21.9692 15.1173 21.8907C14.9907 21.743 14.8477 21.6117 14.7095 21.4758C14.5149 21.286 14.3239 21.0926 14.1329 20.8981C14.0134 20.775 13.8868 20.6578 13.7649 20.536C13.5223 20.291 13.2704 20.0555 13.0395 19.8C12.9399 19.6887 12.8204 19.5961 12.7161 19.4883C12.4806 19.2457 12.2427 19.0055 11.9989 18.7711C11.9391 18.7137 11.8864 18.6481 11.8313 18.586C11.8173 18.5696 11.802 18.5485 11.8149 18.5262C11.8266 18.5051 11.8501 18.5133 11.8677 18.5133C11.9837 18.5098 12.1009 18.518 12.2169 18.5086C12.4395 18.5086 12.6622 18.5086 12.8837 18.5086V18.5074Z" fill="#6D6DDD"/>
<path d="M9.56463 8.52537C9.69002 8.65427 9.81424 8.78318 9.9408 8.90974C10.1494 9.12068 10.3603 9.32927 10.5701 9.53904C10.9521 9.92107 11.333 10.3031 11.7162 10.684C11.8463 10.814 11.9904 10.9336 12.1099 11.0707C12.2306 11.2113 12.3877 11.3168 12.4849 11.4761C12.4486 11.4961 12.4099 11.4855 12.3713 11.4855C12.1592 11.4867 11.947 11.4855 11.7349 11.4855C11.6986 11.4914 11.6799 11.4656 11.6599 11.4422C11.4385 11.1902 11.1877 10.9652 10.951 10.7273C10.7787 10.5539 10.6076 10.3816 10.4353 10.2082C10.324 10.0969 10.2162 9.98083 10.099 9.87537C9.95955 9.7488 9.84236 9.5988 9.70174 9.47341C9.55174 9.33865 9.4158 9.18982 9.27517 9.04568C9.24002 9.00935 9.18142 8.97537 9.21424 8.90623C9.33142 8.77849 9.44744 8.64958 9.56463 8.52185V8.52537Z" fill="#488EC1"/>
<path d="M20.4927 10.8961C20.3427 10.7191 20.1622 10.5726 20.004 10.4027C19.8563 10.2445 19.6888 10.1062 19.5399 9.94802C19.4134 9.81326 19.2751 9.69021 19.152 9.55193C19.0067 9.39021 18.8392 9.24841 18.6845 9.0949C18.5579 8.96833 18.4442 8.82888 18.3106 8.70935C18.1442 8.56052 18.0001 8.3906 17.8372 8.23708C17.7669 8.17029 17.6837 8.10583 17.6392 8.01208C17.8782 8.01208 18.1173 8.01208 18.3575 8.01208C18.477 8.11638 18.5872 8.23005 18.6962 8.34255C18.8122 8.46208 18.9282 8.58162 19.0489 8.69646C19.2259 8.86521 19.3923 9.04333 19.5645 9.2156C19.9349 9.58591 20.3087 9.95505 20.6778 10.3277C20.7353 10.3863 20.795 10.4449 20.8431 10.5117C20.7259 10.6394 20.6099 10.7672 20.4927 10.8961Z" fill="#18BA9E"/>
<path d="M20.7049 21.1723C20.542 21.0118 20.3791 20.85 20.2174 20.6895C20.1424 20.6157 20.0674 20.5418 19.9947 20.4668C19.7838 20.2477 19.5717 20.0309 19.3537 19.82C19.226 19.6958 19.1018 19.5668 18.9752 19.4415C18.8135 19.2809 18.6471 19.1227 18.4912 18.9551C18.3787 18.8344 18.2557 18.7208 18.135 18.6071C18.1103 18.5836 18.0857 18.5614 18.0904 18.5227C18.3353 18.5227 18.5803 18.5227 18.824 18.5227C18.9248 18.6012 19.0139 18.6926 19.1006 18.784C19.192 18.8801 19.2928 18.9668 19.3807 19.0653C19.4873 19.186 19.6197 19.2797 19.7182 19.4075C19.7639 19.4672 19.8307 19.5059 19.8822 19.5598C20.1482 19.8375 20.4236 20.1071 20.7002 20.3743C20.815 20.4844 20.9228 20.604 21.0365 20.7165C21.0518 20.7317 21.0693 20.7481 21.0588 20.7739C20.9744 20.8922 20.8701 20.9942 20.7717 21.0997C20.7494 21.1243 20.726 21.1477 20.7037 21.1711L20.7049 21.1723Z" fill="#4C8BC5"/>
<path d="M20.8431 10.5117C20.7739 10.4824 20.7388 10.4156 20.6884 10.3652C20.4845 10.1613 20.2829 9.95505 20.0767 9.75466C19.8563 9.54138 19.6384 9.32576 19.4251 9.10779C19.2517 8.93083 19.0724 8.7574 18.9013 8.57927C18.7442 8.41638 18.5825 8.25818 18.422 8.0988C18.3962 8.07302 18.3728 8.04607 18.3599 8.01208C18.6271 8.01208 18.8931 8.01208 19.1603 8.01208C19.2997 8.11404 19.3981 8.25935 19.5294 8.36951C19.6583 8.47849 19.7591 8.6156 19.888 8.72576C19.9806 8.80427 20.0462 8.90974 20.1399 8.98826C20.2829 9.10779 20.3966 9.25662 20.5349 9.38084C20.7142 9.54138 20.8712 9.72419 21.0505 9.88591C21.1149 9.94333 21.1888 10.0031 21.2122 10.0969C21.1747 10.1824 21.0927 10.2293 21.0376 10.3019C20.9802 10.3781 20.9087 10.4426 20.8442 10.5129L20.8431 10.5117Z" fill="#14BE9B"/>
<path d="M9.21456 8.90979C9.20871 8.96487 9.24972 9.0012 9.28136 9.02815C9.37277 9.10432 9.4548 9.19338 9.53214 9.27893C9.64699 9.40784 9.7841 9.51331 9.89894 9.64221C9.98214 9.73479 10.0665 9.83088 10.1673 9.91174C10.281 10.0043 10.3736 10.1239 10.4778 10.2293C10.5763 10.3289 10.6818 10.4215 10.779 10.5211C10.8657 10.6102 10.9478 10.7028 11.0415 10.786C11.1845 10.9149 11.3157 11.0567 11.4528 11.1914C11.5431 11.2805 11.6298 11.3719 11.7013 11.4785C11.6767 11.4985 11.6474 11.4879 11.6216 11.4879C11.447 11.4879 11.2712 11.4809 11.0966 11.4914C10.9958 11.4973 10.929 11.4598 10.8646 11.393C10.554 11.0719 10.2423 10.752 9.92238 10.4426C9.66925 10.1977 9.43253 9.93752 9.17472 9.69729C9.07394 9.60354 8.97433 9.50627 8.87941 9.40549C8.8548 9.37971 8.82433 9.35393 8.84894 9.31174C8.97082 9.17815 9.09386 9.04456 9.21574 8.91096L9.21456 8.90979Z" fill="#4C8AC5"/>
<path d="M8.8476 9.31171C8.85464 9.38671 8.92026 9.42186 8.96479 9.46522C9.17456 9.66913 9.38901 9.86835 9.58471 10.0875C9.6726 10.1859 9.7769 10.268 9.87065 10.3617C10.0312 10.5211 10.1894 10.684 10.3488 10.8445C10.3968 10.8926 10.4507 10.9359 10.4964 10.9863C10.6417 11.1457 10.8023 11.2887 10.9511 11.4433C10.9769 11.4703 10.9992 11.482 11.0355 11.482C11.257 11.4797 11.4796 11.4808 11.7011 11.4797C11.9624 11.4797 12.2238 11.4797 12.4851 11.4797C12.7582 11.4797 13.03 11.4797 13.3031 11.4797C13.5703 11.4797 13.8374 11.4797 14.1035 11.4797C14.332 11.4797 14.5593 11.4797 14.7878 11.4797C15.0386 11.4797 15.2882 11.4797 15.539 11.4797C15.655 11.4891 15.7722 11.4656 15.8871 11.4914C15.8542 11.4926 15.8203 11.4949 15.7874 11.4949C14.1515 11.4949 12.5156 11.4937 10.8796 11.4926C10.8492 11.4926 10.8187 11.4937 10.7882 11.4949C10.5972 11.4785 10.4062 11.4926 10.2164 11.4879C10.1531 11.4879 10.1273 11.4351 10.0933 11.3988C9.88823 11.1879 9.67612 10.984 9.47104 10.7742C9.36792 10.6687 9.26362 10.5656 9.15932 10.4625C9.02339 10.3289 8.9062 10.1766 8.75151 10.0605C8.64487 9.97968 8.57339 9.86249 8.4726 9.77577C8.4644 9.76874 8.46206 9.75702 8.46674 9.7453C8.52534 9.63749 8.62964 9.57069 8.70112 9.47225C8.74448 9.41366 8.80073 9.36444 8.84995 9.31171H8.8476Z" fill="#5087C7"/>
<path d="M21.2109 10.0969C21.0809 9.93162 20.9168 9.80037 20.775 9.64802C20.5992 9.46052 20.3977 9.2988 20.2348 9.09958C20.1937 9.04919 20.1352 9.01287 20.0895 8.96482C19.9523 8.82302 19.8094 8.68591 19.6758 8.53943C19.5668 8.4199 19.4379 8.31794 19.3289 8.19841C19.2727 8.13748 19.1988 8.08943 19.1602 8.01208C19.4379 8.01208 19.7168 8.01208 19.9945 8.01208C20.1047 8.1363 20.2312 8.24529 20.3555 8.35427C20.3918 8.38591 20.4176 8.42576 20.448 8.45974C20.591 8.61794 20.7527 8.75857 20.9004 8.91209C21.082 9.10193 21.2766 9.27888 21.45 9.4781C21.5039 9.54021 21.5918 9.56951 21.6129 9.66091C21.4828 9.80974 21.3586 9.96326 21.2121 10.0957L21.2109 10.0969Z" fill="#10C297"/>
<path d="M13.3314 21.9985C13.3162 21.9949 13.2998 21.9926 13.2845 21.9891C13.1345 21.8578 12.9916 21.7196 12.8592 21.5707C12.8041 21.5086 12.7396 21.4559 12.6799 21.3973C12.4279 21.1465 12.1853 20.8875 11.9275 20.6438C11.6627 20.3942 11.4189 20.1235 11.1564 19.8715C10.9068 19.6324 10.6654 19.3828 10.4193 19.1403C10.281 19.0043 10.1615 18.8496 10.0068 18.7289C9.974 18.7032 9.93415 18.6727 9.94822 18.6188C10.0349 18.5449 10.1369 18.5121 10.2506 18.5074C10.376 18.6305 10.506 18.7489 10.6256 18.8789C10.676 18.934 10.7392 18.9715 10.7908 19.0254C10.8916 19.1344 10.9795 19.2563 11.099 19.35C11.1916 19.4227 11.2701 19.5129 11.3521 19.5985C11.4482 19.6969 11.542 19.7965 11.6427 19.8903C11.8068 20.0426 11.9662 20.2008 12.1232 20.3614C12.2674 20.509 12.4162 20.6532 12.5533 20.809C12.6248 20.8899 12.715 20.9578 12.7924 21.0364C12.9845 21.2321 13.1744 21.4289 13.3748 21.6164C13.4873 21.7219 13.5845 21.8426 13.6982 21.9469C13.7322 21.9785 13.7615 21.9903 13.806 21.9926C13.9326 21.9961 14.0603 21.9785 14.1869 22.002C13.9033 22.0067 13.6185 22.0114 13.3349 21.9996L13.3314 21.9985Z" fill="#7862E6"/>
<path d="M7.26228 13.3805C7.37713 13.4825 7.48728 13.5903 7.59275 13.7004C7.74275 13.8575 7.91033 13.9969 8.05564 14.1586C8.15174 14.2653 8.25838 14.3614 8.35916 14.4622C8.48807 14.5899 8.60408 14.7317 8.74705 14.8477C8.82439 14.911 8.89119 14.9895 8.95916 15.0657C9.05408 15.1723 9.16424 15.2649 9.26502 15.3657C9.35291 15.4536 9.43611 15.545 9.524 15.6329C9.70213 15.8122 9.88142 15.9926 10.0619 16.1696C10.1896 16.295 10.3244 16.4145 10.4486 16.5434C10.5095 16.6067 10.574 16.6676 10.6162 16.7473C10.5189 16.7473 10.4217 16.7438 10.3244 16.7508C10.1076 16.7661 9.94588 16.6676 9.82049 16.5059C9.75603 16.4227 9.67986 16.3524 9.61189 16.2715C9.47596 16.1086 9.32361 15.9598 9.18064 15.8028C8.95916 15.5614 8.73885 15.3176 8.51853 15.075C8.30057 14.8348 8.08142 14.5934 7.86346 14.3532C7.69822 14.1715 7.53064 13.9922 7.3701 13.8071C7.29275 13.718 7.19432 13.636 7.21658 13.4942C7.22361 13.4508 7.22596 13.4086 7.26346 13.3782L7.26228 13.3805Z" fill="#6D6DDD"/>
<path d="M21.0609 20.7738C20.9953 20.6719 20.8828 20.618 20.809 20.523C20.6836 20.3613 20.5313 20.2242 20.3801 20.0906C20.1551 19.8926 19.9688 19.6582 19.7473 19.4578C19.6348 19.3559 19.5164 19.2539 19.4215 19.1297C19.357 19.0465 19.2656 18.9832 19.1906 18.9082C19.0934 18.8109 18.9961 18.7125 18.9059 18.6105C18.8789 18.5812 18.8273 18.573 18.8262 18.5215C19.0652 18.5215 19.3043 18.5215 19.5434 18.5215C19.6418 18.6187 19.7426 18.7148 19.8422 18.8109C20.0402 19.0008 20.2289 19.2 20.4234 19.3934C20.5324 19.5023 20.652 19.5996 20.7516 19.7203C20.8395 19.827 20.9414 19.9219 21.0457 20.0133C21.1582 20.1117 21.2555 20.2266 21.3668 20.3262C21.3891 20.3461 21.409 20.3719 21.3961 20.407C21.2941 20.5371 21.184 20.6613 21.0621 20.7738H21.0609Z" fill="#488EC2"/>
<path d="M14.9532 21.9891C14.8759 21.9891 14.7962 21.9809 14.72 21.9915C14.597 22.009 14.5114 21.9622 14.4271 21.8754C14.2442 21.6879 14.0532 21.5063 13.8704 21.32C13.7333 21.1793 13.5974 21.0329 13.4567 20.8934C13.2892 20.7282 13.1181 20.5665 12.9552 20.3965C12.8228 20.2594 12.6821 20.1305 12.5485 19.9958C12.3938 19.8387 12.2368 19.6829 12.081 19.527C11.9181 19.3641 11.7563 19.2024 11.5946 19.0395C11.4306 18.8743 11.2665 18.7067 11.1036 18.5403C11.0942 18.5309 11.0896 18.5168 11.0825 18.5051C11.2267 18.5051 11.3708 18.5051 11.5161 18.5051C11.6263 18.5989 11.713 18.7149 11.8185 18.8133C11.9134 18.9024 11.9966 19.0032 12.0985 19.0864C12.1548 19.1321 12.1993 19.1895 12.2497 19.2411C12.3868 19.3782 12.5216 19.5176 12.661 19.6524C12.7478 19.7356 12.831 19.8282 12.9177 19.9114C13.0325 20.0204 13.1356 20.1399 13.2493 20.2489C13.3665 20.3614 13.4942 20.4645 13.5974 20.5934C13.6524 20.6625 13.7181 20.7235 13.786 20.7821C13.8892 20.87 13.9782 20.9731 14.0755 21.068C14.2466 21.2344 14.4001 21.4172 14.5829 21.5719C14.6743 21.6493 14.747 21.7442 14.8325 21.8286C14.8618 21.8579 14.8899 21.8883 14.9216 21.9153C14.9438 21.934 14.9743 21.9516 14.9521 21.9903L14.9532 21.9891Z" fill="#706ADF"/>
<path d="M9.01396 19.6383C9.096 19.7156 9.18037 19.7907 9.25889 19.8715C9.49443 20.1153 9.73467 20.3567 9.97959 20.5922C10.1144 20.7211 10.2515 20.8512 10.3769 20.9883C10.5269 21.1524 10.7003 21.2942 10.8433 21.4664C10.9628 21.6094 11.1128 21.7278 11.2487 21.8578C11.2851 21.893 11.3437 21.9317 11.3331 21.9774C11.3249 22.0102 11.2534 21.9891 11.2112 21.9903C11.0671 21.9926 10.9229 21.9926 10.7776 21.9938C10.7542 22.0043 10.7284 21.9985 10.7038 21.9985C10.5644 21.8403 10.4026 21.7055 10.2573 21.5543C9.91748 21.2004 9.56475 20.8606 9.21787 20.5149C9.07256 20.3707 8.93076 20.2231 8.79131 20.0719C8.76318 20.0414 8.72686 20.0192 8.69873 19.9887C8.80303 19.8715 8.9085 19.7555 9.01279 19.6383H9.01396Z" fill="#8557EF"/>
<path d="M21.3936 20.4071C21.3408 20.304 21.2412 20.243 21.1662 20.1598C21.0068 19.9864 20.8111 19.8481 20.6729 19.6536C20.6354 19.6008 20.5756 19.5668 20.5287 19.5223C20.3471 19.3512 20.1783 19.1672 20.0002 18.9938C19.8643 18.8614 19.733 18.7243 19.5924 18.5954C19.5701 18.5754 19.5432 18.5579 19.542 18.5227C19.815 18.5227 20.0869 18.5227 20.36 18.5227C20.4865 18.6504 20.6213 18.77 20.7408 18.9047C20.7994 18.9715 20.8709 19.0254 20.9307 19.0911C21.0947 19.268 21.274 19.4286 21.4381 19.6067C21.5307 19.7075 21.6385 19.7977 21.7369 19.8961C21.7604 19.9196 21.7896 19.9383 21.7967 19.9747C21.6643 20.1211 21.5412 20.2747 21.3959 20.4094L21.3936 20.4071Z" fill="#4591BF"/>
<path d="M8.46466 9.74531C8.62286 9.89063 8.76935 10.0477 8.92638 10.193C9.03068 10.2891 9.1256 10.4051 9.22872 10.507C9.34005 10.6172 9.45021 10.7297 9.56388 10.8387C9.76427 11.0297 9.95529 11.2289 10.1498 11.4246C10.1651 11.4398 10.1721 11.4621 10.1826 11.482C9.94122 11.4949 9.69982 11.4844 9.45841 11.4879C9.42208 11.4879 9.38575 11.4879 9.3506 11.4879C9.32013 11.4914 9.29904 11.4762 9.27911 11.4539C9.13849 11.3004 8.9838 11.1609 8.83614 11.0145C8.68849 10.868 8.5338 10.7297 8.39786 10.5715C8.30763 10.4672 8.19747 10.3816 8.10021 10.2832C8.07208 10.2551 8.03341 10.227 8.06388 10.1766C8.19513 10.0301 8.317 9.87422 8.46466 9.74414V9.74531Z" fill="#5483CB"/>
<path d="M7.94641 20.8207C8.08235 20.652 8.23352 20.4973 8.38118 20.3379C8.44211 20.3449 8.48078 20.3883 8.51594 20.4293C8.68586 20.6309 8.89094 20.7973 9.06789 20.9906C9.26828 21.2086 9.49797 21.3984 9.69368 21.6234C9.78274 21.7254 9.89289 21.8074 9.98078 21.9105C10.0054 21.9398 10.0523 21.9773 9.97141 21.9984C9.68664 21.9984 9.40188 21.9984 9.11711 21.9984C9.08664 22.002 9.06672 21.9855 9.04563 21.9645C8.81477 21.7312 8.58391 21.4957 8.35188 21.2637C8.22649 21.1383 8.10227 21.0117 7.97571 20.8887C7.95696 20.8711 7.92649 20.8559 7.94758 20.8207H7.94641Z" fill="#8C50F5"/>
<path d="M9.99824 21.9926C10.0006 21.9129 9.92676 21.8801 9.88457 21.8414C9.6748 21.6492 9.49316 21.4289 9.27988 21.2391C9.1334 21.109 9.00566 20.9543 8.86269 20.8172C8.76191 20.7211 8.65527 20.6285 8.56387 20.5242C8.50645 20.4574 8.44785 20.393 8.37988 20.3379C8.48652 20.2219 8.59316 20.1047 8.6998 19.9887C8.74668 19.9828 8.76895 20.0191 8.79473 20.0461C9.00918 20.2652 9.22012 20.4855 9.43574 20.7023C9.57637 20.8441 9.72871 20.9754 9.86582 21.1195C10.0229 21.2859 10.1799 21.4535 10.3463 21.6105C10.4424 21.7019 10.5232 21.8074 10.6322 21.8848C10.6662 21.9094 10.7061 21.9387 10.6979 21.9926C10.4646 22.0019 10.2303 22.0019 9.99707 21.9926H9.99824Z" fill="#8854F1"/>
<path d="M21.6118 9.66212C21.5216 9.56603 21.4243 9.47579 21.3341 9.38087C21.0974 9.13243 20.8513 8.8922 20.6075 8.65079C20.4142 8.45861 20.2266 8.25939 20.0227 8.07775C20.0016 8.059 19.9911 8.04142 19.9923 8.01447C20.2431 8.01447 20.4927 8.01447 20.7434 8.01447C20.9591 8.25236 21.1876 8.47853 21.4196 8.69884C21.5942 8.86408 21.7442 9.05509 21.9341 9.20392C21.9528 9.21915 21.9704 9.2379 21.9786 9.26251C21.8567 9.39611 21.7337 9.5297 21.6118 9.66329V9.66212Z" fill="#0CC594"/>
<path d="M9.9482 18.6188C9.97046 18.675 10.0115 18.7172 10.0607 18.75C10.1334 18.7981 10.1849 18.8672 10.2423 18.9293C10.3408 19.0371 10.4486 19.1356 10.5529 19.2387C10.6689 19.3547 10.7826 19.4754 10.8998 19.5914C11.0568 19.7461 11.2162 19.8973 11.372 20.052C11.4658 20.1457 11.5525 20.2477 11.6474 20.3414C11.7529 20.4469 11.8701 20.543 11.9709 20.652C12.1126 20.8067 12.2591 20.9578 12.4103 21.1031C12.5474 21.2344 12.6834 21.368 12.8158 21.5028C12.9236 21.6129 13.0466 21.709 13.1392 21.8344C13.1814 21.8918 13.2623 21.9129 13.2857 21.9891C12.9845 21.9973 12.981 22.0008 12.7759 21.7864C12.6072 21.6106 12.4337 21.4406 12.2626 21.2684C12.1209 21.1266 11.9791 20.9824 11.8349 20.8418C11.7353 20.7446 11.6369 20.6438 11.5384 20.5465C11.4001 20.4082 11.263 20.2676 11.1212 20.1328C11.0005 20.018 10.8892 19.8914 10.7732 19.7707C10.7369 19.7332 10.69 19.7063 10.6548 19.6664C10.4697 19.4578 10.2552 19.2797 10.0666 19.0758C9.99273 18.9973 9.92242 18.9153 9.83687 18.8496C9.81695 18.8344 9.7982 18.8168 9.79937 18.7875C9.84859 18.7313 9.88492 18.6621 9.94937 18.6188H9.9482Z" fill="#7962E6"/>
<path d="M21.7959 19.9723C21.7607 19.9406 21.7268 19.909 21.6916 19.8773C21.4912 19.6992 21.3096 19.5023 21.1197 19.3137C20.9193 19.1133 20.7143 18.9164 20.5209 18.7078C20.4646 18.648 20.3943 18.6012 20.3604 18.5215C20.6322 18.5215 20.9053 18.5215 21.1771 18.5215C21.3623 18.7008 21.5346 18.8918 21.7174 19.0723C21.8744 19.227 22.0303 19.384 22.192 19.5363C22.0596 19.6816 21.9283 19.8258 21.7959 19.9711V19.9723Z" fill="#4096BB"/>
<path d="M14.9532 21.9891C14.9192 21.9106 14.8407 21.8731 14.788 21.8098C14.6146 21.6024 14.3978 21.4372 14.2149 21.2356C14.1294 21.1418 14.031 21.0528 13.9431 20.9602C13.8177 20.829 13.67 20.72 13.5563 20.5735C13.4966 20.4961 13.411 20.4375 13.3431 20.3684C13.2446 20.2688 13.1392 20.1762 13.0489 20.0696C12.9716 19.9782 12.8802 19.8985 12.797 19.8106C12.6786 19.684 12.5403 19.5774 12.4255 19.4461C12.3587 19.37 12.2813 19.3032 12.211 19.2282C12.0774 19.0864 11.9286 18.9586 11.7938 18.8168C11.7118 18.7313 11.6345 18.6422 11.5489 18.5602C11.5325 18.545 11.5161 18.5297 11.5161 18.5051C11.7493 18.5051 11.9825 18.5051 12.2157 18.5063C12.1149 18.5344 12.0118 18.511 11.9099 18.5192C11.8817 18.5215 11.8396 18.5016 11.8267 18.5344C11.8149 18.5637 11.8536 18.5872 11.8735 18.6071C11.9837 18.7196 12.088 18.8379 12.2087 18.9411C12.3188 19.036 12.4067 19.1567 12.5146 19.2551C12.6493 19.3782 12.7759 19.5106 12.9048 19.6383C13.1813 19.9137 13.4509 20.1973 13.7298 20.4704C13.8657 20.604 14.0052 20.7364 14.1388 20.8723C14.3392 21.0739 14.5372 21.279 14.7411 21.477C14.9052 21.6364 15.0692 21.7958 15.2192 21.968C15.2427 21.995 15.2696 21.9879 15.2954 21.9879C15.4759 21.9879 15.6563 21.9879 15.838 21.9879C15.9036 21.9961 15.9716 21.975 16.0372 22.0008C15.7583 22.0008 15.4806 21.9997 15.2017 21.9985C15.1196 21.975 15.0364 21.995 14.9544 21.9879L14.9532 21.9891Z" fill="#6F6ADF"/>
<path d="M8.06387 10.1777C8.06856 10.2656 8.14356 10.3031 8.19747 10.3488C8.32403 10.4566 8.42833 10.5844 8.54669 10.698C8.77286 10.9137 8.992 11.1352 9.21583 11.3531C9.25567 11.3918 9.29434 11.4305 9.31543 11.4832C9.08223 11.4961 8.84786 11.4855 8.61465 11.4891C8.58653 11.4926 8.57012 11.4762 8.55372 11.4551C8.47872 11.3625 8.39786 11.2746 8.30293 11.2008C8.24668 11.1574 8.20801 11.1 8.16114 11.0496C8.0252 10.9031 7.85879 10.7871 7.73809 10.6266C7.72754 10.6125 7.70528 10.6031 7.71465 10.5785C7.72637 10.5094 7.79317 10.4824 7.83067 10.4332C7.89981 10.3418 7.98653 10.2633 8.06622 10.1789L8.06387 10.1777Z" fill="#597FCE"/>
<path d="M21.9785 9.2613C21.9059 9.2156 21.8438 9.15701 21.7863 9.0949C21.6094 8.90154 21.4148 8.72576 21.2297 8.53943C21.0891 8.39763 20.9484 8.25701 20.8066 8.11638C20.7773 8.08708 20.748 8.05779 20.7422 8.01208C20.9754 8.01208 21.2098 8.01208 21.443 8.01208C21.5402 8.10349 21.6375 8.19373 21.7289 8.29099C21.8086 8.37537 21.9012 8.44802 21.9785 8.53474C22.0875 8.65544 22.2164 8.75857 22.3102 8.89333C22.1988 9.01521 22.0887 9.13826 21.9773 9.26013L21.9785 9.2613Z" fill="#08C992"/>
<path d="M7.94639 20.8208C7.95107 20.8629 7.99209 20.8735 8.0167 20.8993C8.24287 21.136 8.48311 21.3598 8.70576 21.6C8.80303 21.7043 8.9085 21.8028 9.01514 21.8989C9.04443 21.9247 9.06904 21.9551 9.08193 21.9926C8.82646 22.0055 8.571 21.995 8.3167 21.9985C8.28506 22.0032 8.26631 21.9844 8.24756 21.9622C8.21709 21.9258 8.18193 21.8954 8.15029 21.8614C7.97217 21.6657 7.77178 21.4911 7.58779 21.3C7.5749 21.286 7.55967 21.2731 7.55029 21.2555C7.67803 21.1055 7.80576 20.9567 7.94639 20.8196V20.8208Z" fill="#924BF9"/>
<path d="M22.1918 19.5375C22.1027 19.5093 22.0512 19.432 21.9902 19.3722C21.8039 19.1883 21.6129 19.009 21.4395 18.8121C21.3633 18.7265 21.2672 18.6597 21.1969 18.5672C21.1863 18.5531 21.177 18.5402 21.1758 18.5226C21.3703 18.5203 21.5648 18.5191 21.7594 18.5168C21.8238 18.5062 21.8883 18.5144 21.9539 18.5121C21.968 18.5121 21.9809 18.5168 21.9914 18.5261C22.1766 18.7113 22.3652 18.8941 22.5434 19.0851C22.5527 19.0957 22.5598 19.1074 22.5621 19.1215C22.4496 19.2703 22.3148 19.3992 22.1906 19.5375H22.1918Z" fill="#3C99B9"/>
<path d="M7.71224 10.5774C7.84115 10.7321 7.99935 10.8575 8.13646 11.004C8.25599 11.1317 8.38607 11.25 8.51263 11.3719C8.54544 11.4036 8.57591 11.434 8.57943 11.4821C8.36732 11.495 8.15521 11.4844 7.9431 11.4879C7.91849 11.4903 7.90091 11.4786 7.88568 11.461C7.74974 11.2993 7.58685 11.1633 7.44037 11.0122C7.40872 10.9793 7.37943 10.9442 7.41107 10.895C7.49662 10.7965 7.58333 10.6981 7.66888 10.5997C7.6806 10.5868 7.69466 10.5786 7.71107 10.5786L7.71224 10.5774Z" fill="#5C7CD0"/>
<path d="M22.3112 8.89451C22.2081 8.8031 22.1085 8.70701 22.0194 8.60037C21.9726 8.54412 21.914 8.49607 21.8612 8.44451C21.7276 8.31326 21.5929 8.18201 21.4593 8.04958C21.4499 8.04021 21.4487 8.02497 21.4429 8.01326C21.5483 8.01091 21.655 8.00857 21.7605 8.00622C21.8683 7.99685 21.9749 8.00505 22.0827 8.00154C22.1073 7.99919 22.1237 8.01326 22.1378 8.03201C22.2468 8.18669 22.4085 8.29099 22.5315 8.43162C22.5644 8.46912 22.6007 8.50193 22.6276 8.54412L22.3101 8.89451H22.3112Z" fill="#05CC8F"/>
<path d="M7.54932 21.2567C7.58096 21.2567 7.59619 21.2836 7.61612 21.3024C7.74502 21.4242 7.8669 21.552 7.99815 21.6727C8.09073 21.7582 8.17393 21.8567 8.26299 21.9481C8.27588 21.961 8.28057 21.9762 8.28057 21.9926C7.99698 22.002 7.71455 22.0008 7.43096 21.9926C7.18838 21.9528 7.15908 21.6563 7.3044 21.518C7.39112 21.436 7.46963 21.3434 7.55049 21.2555L7.54932 21.2567Z" fill="#9548FC"/>
<path d="M22.5633 19.1215C22.4883 19.0617 22.4227 18.9914 22.3594 18.9188C22.3078 18.8602 22.248 18.8074 22.1918 18.7524C22.1156 18.6797 22.0324 18.6129 21.9785 18.5203C22.1789 18.5063 22.3781 18.511 22.5785 18.518C22.7859 18.5778 22.8363 18.8004 22.7473 18.9223C22.6945 18.9949 22.6383 19.0688 22.5645 19.1227L22.5633 19.1215Z" fill="#379EB5"/>
<path d="M7.4122 10.8938C7.40517 10.9395 7.42978 10.9711 7.46024 11.0028C7.59384 11.1375 7.74032 11.2618 7.86454 11.4059C7.88446 11.4282 7.91376 11.4446 7.91376 11.4797C7.75321 11.4938 7.59149 11.4891 7.43095 11.4821C7.18603 11.4399 7.15673 11.1399 7.30321 11.0133C7.34423 10.9782 7.36415 10.9219 7.41337 10.8938H7.4122Z" fill="#6079D3"/>
<path d="M22.6278 8.54417C22.5481 8.50081 22.4896 8.4305 22.4333 8.36487C22.3583 8.27815 22.2622 8.21721 22.1896 8.13167C22.1579 8.09417 22.1216 8.06018 22.1099 8.00979C22.2657 7.99573 22.4204 8.00159 22.5763 8.00628C22.7474 8.08011 22.8188 8.19846 22.7743 8.34964C22.7509 8.42932 22.6888 8.48792 22.6278 8.543V8.54417Z" fill="#01CF8C"/>
<path d="M13.868 13.2528C13.7754 13.2797 13.6793 13.2575 13.5855 13.2657C13.5586 13.2903 13.5246 13.2915 13.4918 13.2915C13.268 13.2915 13.043 13.295 12.8191 13.2891C12.5414 13.2938 12.2625 13.2915 11.9848 13.2891C11.8125 13.2926 11.6402 13.2903 11.468 13.2891C11.4328 13.2891 11.3953 13.2915 11.3672 13.2622C11.3672 13.2586 11.3672 13.2563 11.3672 13.2528C11.4 13.2516 11.434 13.2493 11.4668 13.2493C12.2367 13.2493 13.0066 13.2493 13.7766 13.2493C13.807 13.2493 13.8375 13.2504 13.868 13.2516V13.2528Z" fill="#597FCE"/>
<path d="M11.3672 13.2645C11.5734 13.2645 11.7785 13.2645 11.9847 13.2656C12.014 13.2821 12.0422 13.2985 12.0644 13.3254C12.2179 13.5164 12.4148 13.6653 12.5812 13.8434C12.7148 13.9875 12.8683 14.1129 12.9937 14.2664C13.0254 14.3063 13.0652 14.3367 13.1062 14.3649C13.2199 14.4434 13.2961 14.5582 13.3922 14.6543C13.5597 14.8207 13.7297 14.9848 13.8937 15.1535C14.0918 15.3598 14.2933 15.5625 14.4972 15.7629C14.7773 16.036 15.0422 16.3242 15.3293 16.5903C15.3691 16.6266 15.4254 16.6617 15.4054 16.7332C15.1218 16.7332 14.8382 16.7332 14.5547 16.7332C14.3625 16.5446 14.1738 16.3524 13.984 16.1614C13.8609 16.0383 13.7461 15.9059 13.6148 15.791C13.5691 15.75 13.534 15.6996 13.4906 15.6563C13.275 15.4407 13.0488 15.2356 12.8355 15.0176C12.5988 14.775 12.3527 14.5442 12.1183 14.2992C11.9554 14.1293 11.7902 13.9617 11.6226 13.7977C11.4691 13.6465 11.3226 13.4871 11.1621 13.3418C11.141 13.3231 11.1105 13.3031 11.134 13.2656C11.2113 13.2656 11.2898 13.2645 11.3672 13.2633V13.2645Z" fill="#5483CB"/>
<path d="M11.1327 13.2668C11.1362 13.2774 11.1362 13.2926 11.1432 13.2973C11.2487 13.3758 11.3213 13.486 11.4174 13.5739C11.5065 13.6559 11.585 13.7473 11.6753 13.827C11.8006 13.9383 11.9061 14.0684 12.0327 14.1797C12.1569 14.2887 12.2588 14.4211 12.3796 14.5348C12.56 14.7047 12.7276 14.8887 12.9046 15.0622C13.1096 15.2625 13.3182 15.4618 13.5221 15.6645C13.6522 15.7946 13.7753 15.9317 13.9053 16.0618C14.1057 16.2645 14.3085 16.4649 14.51 16.6676C14.5288 16.6864 14.5534 16.7028 14.5534 16.7356C14.3085 16.7356 14.0635 16.7356 13.8198 16.7356C13.7319 16.6758 13.6686 16.5903 13.5948 16.5153C13.378 16.2973 13.1588 16.0805 12.9444 15.8602C12.6409 15.5473 12.321 15.252 12.0198 14.9368C11.8288 14.7364 11.6284 14.5442 11.4327 14.3485C11.1549 14.0719 10.8854 13.7883 10.5971 13.5223C10.5362 13.4661 10.4823 13.4016 10.4249 13.3407C10.4061 13.3208 10.3874 13.2985 10.4003 13.2668C10.6452 13.2668 10.8889 13.2668 11.1338 13.2668H11.1327Z" fill="#597FCE"/>
<path d="M10.399 13.2667C10.4447 13.3652 10.5303 13.4332 10.6041 13.5035C10.8631 13.7507 11.108 14.0121 11.3658 14.2593C11.5334 14.421 11.6834 14.6015 11.8674 14.7457C11.9037 14.7738 11.9271 14.8183 11.96 14.8511C12.1873 15.0773 12.41 15.307 12.6467 15.5238C12.7252 15.5964 12.7908 15.682 12.867 15.7582C13.1365 16.03 13.4072 16.2996 13.6791 16.5703C13.7307 16.6218 13.7764 16.6757 13.8186 16.7343C13.61 16.7343 13.4014 16.7332 13.1928 16.7355C13.1354 16.7355 13.1037 16.7121 13.0674 16.671C12.9854 16.5785 12.9033 16.4859 12.8143 16.398C12.6725 16.2597 12.526 16.125 12.3924 15.9773C12.3314 15.9093 12.2705 15.8343 12.1932 15.7804C12.1439 15.7464 12.1193 15.6914 12.076 15.6515C11.9166 15.5015 11.7467 15.3621 11.599 15.2003C11.4338 15.0199 11.2557 14.8546 11.0869 14.6777C10.9451 14.53 10.7928 14.3941 10.6486 14.2488C10.4811 14.0789 10.3146 13.9089 10.1482 13.739C10.0158 13.6042 9.88105 13.4718 9.74863 13.3382C9.72754 13.3171 9.69941 13.3007 9.69824 13.2644C9.93145 13.2644 10.1658 13.2644 10.399 13.2644V13.2667Z" fill="#5C7CD1"/>
<path d="M15.4044 16.7344C15.3938 16.6898 15.3657 16.6547 15.3341 16.6242C15.1993 16.4895 15.0646 16.3547 14.9228 16.227C14.8407 16.1531 14.7657 16.0699 14.6966 15.9844C14.6181 15.8859 14.5114 15.8215 14.4306 15.7254C14.3532 15.6328 14.2606 15.552 14.1751 15.4652C13.9771 15.2672 13.7802 15.0691 13.5821 14.8723C13.4591 14.7504 13.3337 14.6297 13.2212 14.4973C13.1415 14.4023 13.0231 14.3461 12.9458 14.2465C12.8474 14.1188 12.722 14.018 12.6095 13.9043C12.5017 13.7953 12.3985 13.6793 12.279 13.5809C12.1677 13.4895 12.0774 13.3758 11.9849 13.2656C12.2626 13.2656 12.5403 13.2656 12.8192 13.2656C12.9435 13.3887 13.0642 13.5141 13.1907 13.6348C13.3091 13.7473 13.4192 13.868 13.5376 13.9816C13.6665 14.1047 13.7872 14.2336 13.9114 14.3613C13.9794 14.4305 14.0485 14.4996 14.1188 14.5652C14.3169 14.7516 14.5044 14.9484 14.6942 15.1418C14.9485 15.4008 15.2134 15.6504 15.4665 15.9105C15.7138 16.1648 15.9646 16.4156 16.2165 16.6641C16.2353 16.6828 16.2622 16.7004 16.2399 16.7344C15.9622 16.7344 15.6833 16.7344 15.4056 16.7344H15.4044Z" fill="#5087C7"/>
<path d="M17.7233 16.7332C17.6964 16.65 17.6249 16.5996 17.5675 16.5457C17.4011 16.3875 17.244 16.2188 17.08 16.0582C16.8936 15.8778 16.712 15.6949 16.5233 15.5168C16.4143 15.4137 16.3159 15.2977 16.2081 15.1922C16.0909 15.0785 15.9772 14.9613 15.8612 14.8465C15.6374 14.6227 15.4136 14.3988 15.1909 14.1762C14.9448 13.9301 14.6987 13.6852 14.4538 13.4379C14.4175 13.4004 14.3659 13.3793 14.3413 13.3289C14.3331 13.3125 14.3061 13.302 14.3132 13.2821C14.3225 13.2551 14.3518 13.2668 14.3718 13.2668C14.6132 13.2668 14.8546 13.2668 15.096 13.2668C15.0983 13.2668 15.1018 13.2668 15.1042 13.2668C15.239 13.3863 15.3725 13.5071 15.4886 13.6465C15.5729 13.7473 15.6784 13.8258 15.7722 13.916C15.9807 14.1188 16.1823 14.3297 16.3862 14.5371C16.5432 14.6977 16.7038 14.8547 16.862 15.0141C17.0706 15.2238 17.2804 15.4348 17.4925 15.6422C17.653 15.7992 17.8112 15.9586 17.9694 16.1192C18.1288 16.2809 18.2835 16.4473 18.4534 16.5996C18.4909 16.6336 18.5436 16.6688 18.5237 16.7367C18.2565 16.7367 17.9893 16.7367 17.7233 16.7367V16.7332Z" fill="#4591BF"/>
<path d="M18.524 16.7332C18.5041 16.6594 18.4455 16.6148 18.3951 16.5645C18.1888 16.3582 17.9826 16.152 17.7763 15.9457C17.6123 15.7816 17.4529 15.6152 17.2841 15.4559C17.0837 15.266 16.9033 15.0574 16.6982 14.8734C16.5353 14.727 16.4017 14.5535 16.2318 14.4129C16.1158 14.3168 16.0232 14.1938 15.9154 14.0871C15.7841 13.9559 15.6435 13.8328 15.5146 13.7004C15.3916 13.5738 15.2767 13.4402 15.1396 13.3277C15.1209 13.3125 15.1009 13.2949 15.1021 13.2656C15.3693 13.2656 15.6365 13.2656 15.9025 13.2656C15.9025 13.3008 15.9294 13.3195 15.9517 13.3395C16.1919 13.5563 16.4041 13.8 16.6408 14.0203C16.7568 14.1281 16.8611 14.2535 16.9783 14.3602C17.1505 14.516 17.2982 14.6941 17.4681 14.8512C17.5818 14.9555 17.6861 15.0762 17.7998 15.1816C17.8865 15.2625 17.9556 15.3586 18.0529 15.4312C18.1244 15.484 18.1759 15.5637 18.2404 15.6281C18.4232 15.8121 18.6025 16.0008 18.7923 16.1766C18.9294 16.3043 19.0466 16.4531 19.1943 16.5715C19.2447 16.6125 19.2939 16.6676 19.322 16.7332C19.0548 16.7332 18.7888 16.7332 18.5216 16.7332H18.524Z" fill="#4096BB"/>
<path d="M16.2389 16.7343C16.1955 16.6453 16.11 16.596 16.0443 16.5281C15.9436 16.4226 15.8475 16.3125 15.7396 16.2128C15.5439 16.0324 15.3682 15.832 15.1771 15.648C15.0764 15.5507 14.965 15.464 14.8771 15.3527C14.8162 15.2753 14.7377 15.2109 14.6686 15.1406C14.5279 15 14.3861 14.8605 14.2502 14.7164C14.1764 14.6378 14.0943 14.5699 14.0193 14.4937C13.9057 14.3777 13.792 14.2628 13.6771 14.148C13.4861 13.9558 13.2986 13.7613 13.1006 13.575C13.0197 13.4988 12.9459 13.4179 12.8686 13.3382C12.8475 13.3171 12.8193 13.2996 12.8193 13.2644C13.0748 13.2644 13.3314 13.2644 13.5869 13.2644C13.6221 13.3734 13.717 13.432 13.792 13.507C13.908 13.623 14.0252 13.739 14.1412 13.855C14.2033 13.9171 14.2631 13.9816 14.3264 14.0437C14.5572 14.2757 14.7893 14.5066 15.0213 14.7386C15.1537 14.871 15.2838 15.007 15.4197 15.1359C15.6072 15.314 15.7854 15.5015 15.9682 15.6843C16.1979 15.9152 16.4416 16.1332 16.6631 16.371C16.7732 16.4894 16.9186 16.5761 16.9889 16.7308C16.7393 16.7308 16.4885 16.7308 16.2389 16.7308V16.7343Z" fill="#4C8BC5"/>
<path d="M12.9189 8.00977C13.2025 8.00977 13.4861 8.00977 13.7697 8.00977C13.8893 8.11406 13.9947 8.23242 14.1061 8.34375C14.2596 8.49727 14.4096 8.65195 14.5678 8.80078C14.7037 8.92734 14.8268 9.0668 14.9592 9.1957C15.1607 9.39023 15.3541 9.59297 15.5533 9.78984C15.7549 9.98906 15.9576 10.1859 16.1498 10.3934C16.1826 10.4285 16.2201 10.4566 16.2541 10.4895C16.5436 10.773 16.8248 11.0637 17.1119 11.3496C17.1482 11.3848 17.1951 11.4176 17.1893 11.4797C16.9338 11.4797 16.6783 11.4797 16.4229 11.4797C16.3748 11.4797 16.3479 11.4645 16.315 11.4246C16.2318 11.3227 16.1381 11.2289 16.042 11.1387C15.8861 10.9922 15.7396 10.8363 15.5873 10.6863C15.4139 10.5164 15.2498 10.3371 15.067 10.1766C14.9709 10.0922 14.8842 9.99492 14.7951 9.90234C14.583 9.68086 14.365 9.46406 14.1482 9.24727C13.9631 9.06211 13.7791 8.87578 13.5928 8.6918C13.4393 8.53828 13.2869 8.38359 13.1275 8.23594C13.0537 8.16797 12.9811 8.0918 12.9189 8.00977Z" fill="#30A4AF"/>
<path d="M17.1891 11.4797C17.1586 11.427 17.1164 11.3824 17.0742 11.3391C16.8586 11.1164 16.6418 10.8926 16.4191 10.677C16.1602 10.425 15.9059 10.1695 15.6492 9.91406C15.457 9.72305 15.2672 9.53086 15.0773 9.33867C14.9426 9.20273 14.8195 9.05391 14.6707 8.93203C14.6203 8.88984 14.5758 8.84063 14.5289 8.79375C14.284 8.54883 14.0402 8.30391 13.7953 8.06016C13.7813 8.04609 13.7695 8.03086 13.7695 8.00977C14.0145 8.00977 14.2594 8.00977 14.5031 8.00977C14.5113 8.02969 14.5137 8.05898 14.5277 8.06953C14.6391 8.14805 14.7117 8.26523 14.816 8.35195C14.891 8.41523 14.9484 8.49844 15.0211 8.56641C15.1641 8.7 15.3059 8.83711 15.4406 8.97891C15.6059 9.15352 15.7863 9.31406 15.9504 9.48984C16.0488 9.59531 16.1566 9.69727 16.2598 9.79922C16.425 9.96445 16.6078 10.1133 16.7543 10.2984C16.7918 10.3453 16.8469 10.377 16.8891 10.4203C17.0766 10.6113 17.2605 10.8059 17.4492 10.9957C17.5687 11.1164 17.693 11.2312 17.8172 11.3484C17.857 11.3859 17.8711 11.4387 17.9051 11.4785C17.666 11.4785 17.427 11.4785 17.1879 11.4785L17.1891 11.4797Z" fill="#2CA8AD"/>
</g>
<defs>
<clipPath id="clip0_2454_8634">
<rect width="30" height="30" rx="15" fill="white"/>
</clipPath>
</defs>
</svg>
