<svg width="158" height="80" viewBox="0 0 158 80" fill="none" xmlns="http://www.w3.org/2000/svg">
<g opacity="0.6">
<path d="M34.0107 52.5503L27.0703 40.5288C28.663 42.6206 31.1787 43.9721 34.0107 43.9721C36.8439 43.9721 39.3595 42.619 40.9521 40.5259L34.0107 52.5503ZM42.0576 38.6118C42.4898 37.5777 42.7305 36.4433 42.7305 35.2524C42.7305 30.6139 39.1081 26.8229 34.5381 26.5503H49.0225L42.0576 38.6118ZM33.4844 26.5503C28.914 26.8225 25.291 30.6136 25.291 35.2524C25.291 36.442 25.5306 37.5756 25.9619 38.6089L19 26.5503H33.4844Z" fill="#5F5F5F"/>
<path d="M78.8771 30.3904H82.5205L72.3856 48.7104H68.3316L58.1709 30.3904H61.8144L70.3586 45.7853L78.8771 30.3904Z" fill="#5F5F5F"/>
<path d="M84.5307 30.3904H87.584V48.7104H84.5307V30.3904Z" fill="#5F5F5F"/>
<path d="M104.045 30.3904C104.592 30.3904 105.208 30.4246 105.892 30.493C106.594 30.5443 107.303 30.6812 108.022 30.9036C108.74 31.1088 109.433 31.4167 110.1 31.8273C110.784 32.2207 111.392 32.7595 111.922 33.4437C112.469 34.1108 112.905 34.949 113.23 35.9582C113.555 36.9504 113.718 38.1477 113.718 39.5504C113.718 40.953 113.555 42.159 113.23 43.1682C112.905 44.1603 112.469 44.9985 111.922 45.6827C111.392 46.3498 110.784 46.8886 110.1 47.2992C109.433 47.6926 108.74 48.0005 108.022 48.2229C107.303 48.4281 106.594 48.565 105.892 48.6334C105.208 48.6847 104.592 48.7104 104.045 48.7104H100.042C99.4947 48.7104 98.8704 48.6847 98.1691 48.6334C97.4848 48.565 96.7835 48.4281 96.0651 48.2229C95.3467 48.0005 94.6453 47.6926 93.9611 47.2992C93.294 46.8886 92.6868 46.3498 92.1394 45.6827C91.6091 44.9985 91.1815 44.1603 90.8565 43.1682C90.5315 42.159 90.369 40.953 90.369 39.5504C90.369 38.1477 90.5315 36.9504 90.8565 35.9582C91.1815 34.949 91.6091 34.1108 92.1394 33.4437C92.6868 32.7595 93.294 32.2207 93.9611 31.8273C94.6453 31.4167 95.3467 31.1088 96.0651 30.9036C96.7835 30.6812 97.4848 30.5443 98.1691 30.493C98.8704 30.4246 99.4947 30.3904 100.042 30.3904H104.045ZM103.968 45.9136C105.302 45.9136 106.38 45.7255 107.201 45.3491C108.039 44.9728 108.689 44.4853 109.151 43.8866C109.63 43.2708 109.955 42.5866 110.126 41.834C110.297 41.0813 110.382 40.3201 110.382 39.5504C110.382 38.7806 110.297 38.0194 110.126 37.2668C109.955 36.5142 109.63 35.8385 109.151 35.2398C108.689 34.6411 108.039 34.1536 107.201 33.7773C106.38 33.401 105.302 33.2128 103.968 33.2128H100.119C98.7849 33.2128 97.6987 33.401 96.8605 33.7773C96.0394 34.1536 95.3894 34.6411 94.9105 35.2398C94.4486 35.8385 94.1322 36.5142 93.9611 37.2668C93.7901 38.0194 93.7045 38.7806 93.7045 39.5504C93.7045 40.3201 93.7901 41.0813 93.9611 41.834C94.1322 42.5866 94.4486 43.2708 94.9105 43.8866C95.3894 44.4853 96.0394 44.9728 96.8605 45.3491C97.6987 45.7255 98.7849 45.9136 100.119 45.9136H103.968Z" fill="#5F5F5F"/>
<path d="M136.773 30.3904H139.827V48.7104H135.721L119.557 33.8543V48.7104H116.503V30.3904H120.583L136.773 45.2465V30.3904Z" fill="#5F5F5F"/>
</g>
</svg>
